<svg width="19" height="26" viewBox="0 0 19 26" fill="none" xmlns="http://www.w3.org/2000/svg">
<g clip-path="url(#clip0_24_5280)">
<path d="M0.792969 7.87109L3.02102 21.4889C3.25637 22.9276 4.28031 24.112 5.66991 24.5528L5.98723 24.6534C8.27291 25.3791 10.7272 25.3791 13.0129 24.6534L13.3302 24.5528C14.7195 24.1122 15.7434 22.9282 15.9791 21.4899L18.2072 7.87109" stroke="#46679F" stroke-width="1.4" stroke-linecap="round" stroke-linejoin="round"/>
<path d="M18.2072 7.8724C18.2071 8.94101 14.3089 9.8073 9.50006 9.8073C4.69127 9.8073 0.79297 8.94101 0.792969 7.8724C0.792967 6.80378 4.69127 5.9375 9.50006 5.9375C14.3089 5.9375 18.2072 6.80378 18.2072 7.8724Z" stroke="#46679F" stroke-width="1.4" stroke-linecap="round" stroke-linejoin="round"/>
<path d="M18.431 14.3925C18.1906 15.4337 14.1974 15.4009 9.51185 14.3191C4.8263 13.2374 1.22279 11.5164 1.46318 10.4752C1.70356 9.43394 5.69682 9.46678 10.3824 10.5485C15.0679 11.6303 18.6714 13.3513 18.431 14.3925Z" fill="white" stroke="#46679F" stroke-width="1.4" stroke-linecap="round" stroke-linejoin="round"/>
<path d="M10.6823 15.6101C10.6823 15.755 10.1535 15.8725 9.50129 15.8725C8.84905 15.8725 8.32031 15.755 8.32031 15.6101C8.32031 15.4652 8.84905 15.3477 9.50129 15.3477C10.1535 15.3477 10.6823 15.4652 10.6823 15.6101Z" fill="#E4E4E4" stroke="#46679F" stroke-width="1.4" stroke-linecap="round" stroke-linejoin="round"/>
</g>
<defs>
<clipPath id="clip0_24_5280">
<rect width="17.8384" height="24.3949" fill="white" transform="translate(0.582031 0.802734)"/>
</clipPath>
</defs>
</svg>
