<svg width="70" height="50" viewBox="0 0 70 50" fill="none" xmlns="http://www.w3.org/2000/svg">
<path opacity="0.484929" d="M0 2C0 0.895432 0.895431 0 2 0H68C69.1046 0 70 0.89543 70 2V48C70 49.1046 69.1046 50 68 50H2C0.89543 50 0 49.1046 0 48V2Z" fill="#ECEFF5"/>
<path opacity="0.5" d="M45.8203 14.7054C46.3163 14.7054 46.7221 15.1112 46.7221 15.6071V33.6316L46.4403 33.2652L38.7751 23.3456C38.5215 23.0131 38.1213 22.8214 37.7042 22.8214C37.2872 22.8214 36.8926 23.0131 36.6334 23.3456L31.9554 29.3988L30.2363 26.9922C29.9827 26.6371 29.5769 26.4286 29.1373 26.4286C28.6977 26.4286 28.2919 26.6371 28.0382 26.9978L23.5293 33.3103L23.2757 33.6598V15.6071C23.2757 15.1112 23.6815 14.7054 24.1775 14.7054H45.8203ZM24.1775 12C22.1879 12 20.5703 13.6176 20.5703 15.6071V33.6429C20.5703 35.6324 22.1879 37.25 24.1775 37.25H45.8203C47.8099 37.25 49.4275 35.6324 49.4275 33.6429V15.6071C49.4275 13.6176 47.8099 12 45.8203 12H24.1775ZM28.6864 22.8214C30.1805 22.8214 31.3917 21.6102 31.3917 20.1161C31.3917 18.6219 30.1805 17.4107 28.6864 17.4107C27.1923 17.4107 25.981 18.6219 25.981 20.1161C25.981 21.6102 27.1923 22.8214 28.6864 22.8214Z" fill="#1C3258"/>
</svg>
