<svg width="142" height="152" viewBox="0 0 142 152" fill="none" xmlns="http://www.w3.org/2000/svg">
<path opacity="0.155" d="M72.6512 138.69C110.95 138.69 141.998 107.643 141.998 69.3451C141.998 31.0469 110.95 0 72.6512 0C34.3522 0 3.30469 31.0469 3.30469 69.3451C3.30469 107.643 34.3522 138.69 72.6512 138.69Z" fill="#1C346C"/>
<path d="M66.6601 41.4171L8.7293 58.0282C3.90824 59.4106 1.12067 64.4394 2.50309 69.2604L23.6655 143.061C25.048 147.882 30.0769 150.67 34.8979 149.287L92.8287 132.676C97.6498 131.294 100.437 126.265 99.0549 121.444L77.8925 47.6432C76.5101 42.8223 71.4811 40.0348 66.6601 41.4171Z" fill="#9AAFD3"/>
<mask id="mask0_46_14427" style="mask-type:luminance" maskUnits="userSpaceOnUse" x="37" y="20" width="84" height="101">
<path d="M111.459 20.6406H47.0655C42.0501 20.6406 37.9844 24.7063 37.9844 29.7215V111.45C37.9844 116.465 42.0501 120.531 47.0655 120.531H111.459C116.474 120.531 120.54 116.465 120.54 111.45V29.7215C120.54 24.7063 116.474 20.6406 111.459 20.6406Z" fill="white"/>
</mask>
<g mask="url(#mask0_46_14427)">
<path d="M51.1905 20.6406H111.456C113.864 20.6406 116.174 21.5974 117.877 23.3004C119.58 25.0034 120.537 27.3131 120.537 29.7215V106.497C120.537 108.905 119.58 111.215 117.877 112.918C116.174 114.621 113.864 115.577 111.456 115.577H51.1905C48.782 115.577 46.4722 114.621 44.7692 112.918C43.0661 111.215 42.1094 108.905 42.1094 106.497V29.7215C42.1094 27.3131 43.0661 25.0034 44.7692 23.3004C46.4722 21.5974 48.782 20.6406 51.1905 20.6406Z" fill="white"/>
<mask id="mask1_46_14427" style="mask-type:luminance" maskUnits="userSpaceOnUse" x="33" y="95" width="100" height="27">
<path d="M123.011 95.7539H42.9326C37.9173 95.7539 33.8516 99.8196 33.8516 104.835V112.265C33.8516 117.28 37.9173 121.346 42.9326 121.346H123.011C128.027 121.346 132.092 117.28 132.092 112.265V104.835C132.092 99.8196 128.027 95.7539 123.011 95.7539Z" fill="white"/>
</mask>
<g mask="url(#mask1_46_14427)">
<path d="M50.7803 21.7539L111.458 24.7597C113.867 24.7597 116.177 25.7164 117.88 27.4194C119.583 29.1224 120.54 31.4322 120.54 33.8406C120.54 115.631 112.631 109.239 95.0687 112.668L98.5658 119.025H97.9301L50.7803 116.691C48.3718 116.691 46.062 115.734 44.359 114.031C42.656 112.328 41.6992 110.018 41.6992 107.61L42.5322 79.8982L42.112 33.8406C42.112 28.8255 45.7626 21.7539 50.7803 21.7539Z" fill="#481212"/>
<path d="M51.1983 20.6328H111.464C113.872 20.6328 116.182 21.5895 117.885 23.2925C119.588 24.9956 120.545 27.3053 120.545 29.7137V106.489C120.545 108.897 119.588 111.207 117.885 112.91C116.182 114.613 113.872 115.57 111.464 115.57H51.1983C48.7898 115.57 46.48 114.613 44.777 112.91C43.0739 111.207 42.1172 108.897 42.1172 106.489V29.7137C42.1172 27.3053 43.0739 24.9956 44.777 23.2925C46.48 21.5895 48.7898 20.6328 51.1983 20.6328Z" fill="white"/>
</g>
</g>
<path d="M98.8813 86.4897L94.5898 89.9648L101.975 99.084L106.266 95.6089L98.8813 86.4897Z" fill="white"/>
<path d="M98.8813 86.4897L94.5898 89.9648L98.2822 94.5244L102.574 91.0493L98.8813 86.4897Z" fill="white"/>
<path d="M80.8809 90.4327C94.2317 90.4327 105.055 79.6099 105.055 66.2593C105.055 52.9087 94.2317 42.0859 80.8809 42.0859C67.53 42.0859 56.707 52.9087 56.707 66.2593C56.707 79.6099 67.53 90.4327 80.8809 90.4327Z" stroke="#46679F" stroke-width="3"/>
<path d="M99.8348 78.9971C107.44 68.5336 105.123 53.886 94.6592 46.2809C84.1955 38.6758 69.5477 40.993 61.9424 51.4565C54.3372 61.92 56.6544 76.5675 67.1181 84.1726C77.5818 91.7777 92.2296 89.4606 99.8348 78.9971Z" stroke="white" stroke-width="2.00023" stroke-linecap="round" stroke-dasharray="8 199.02"/>
<path d="M99.9608 94.8789L103.411 92.0849C104.092 91.5338 104.964 91.2755 105.835 91.3671C106.706 91.4586 107.505 91.8924 108.056 92.573L123.798 112.012C124.487 112.863 124.809 113.953 124.695 115.042C124.581 116.13 124.038 117.129 123.187 117.818L120.379 120.092C119.698 120.644 118.826 120.902 117.955 120.81C117.084 120.719 116.285 120.285 115.734 119.604L99.4727 99.5233C98.9215 98.8427 98.6633 97.971 98.7549 97.1C98.8464 96.229 99.2802 95.4301 99.9608 94.8789Z" fill="#385586"/>
<path d="M100.226 95.1973L103.676 92.4033C104.272 91.921 105.035 91.6951 105.797 91.7752C106.559 91.8553 107.258 92.2348 107.74 92.8304L123.482 112.27C123.789 112.649 124.019 113.085 124.157 113.553C124.296 114.02 124.341 114.511 124.29 114.996C124.239 115.481 124.093 115.951 123.86 116.38C123.627 116.809 123.312 117.188 122.933 117.495L120.124 119.769C119.529 120.251 118.766 120.477 118.004 120.397C117.242 120.317 116.543 119.938 116.06 119.342L99.7988 99.2611C99.3166 98.6656 99.0907 97.9028 99.1708 97.1407C99.2509 96.3786 99.6304 95.6795 100.226 95.1973Z" stroke="white"/>
<path d="M80.8914 49.0039H80.8906C79.3956 49.0039 78.1836 50.2158 78.1836 51.7108V69.7662C78.1836 71.2612 79.3956 72.4731 80.8906 72.4731H80.8914C82.3864 72.4731 83.5984 71.2612 83.5984 69.7662V51.7108C83.5984 50.2158 82.3864 49.0039 80.8914 49.0039Z" fill="#1C3258"/>
<path d="M80.8966 49.4219H80.8958C79.6287 49.4219 78.6016 50.449 78.6016 51.716V69.7714C78.6016 71.0384 79.6287 72.0655 80.8958 72.0655H80.8966C82.1637 72.0655 83.1908 71.0384 83.1908 69.7714V51.716C83.1908 50.449 82.1637 49.4219 80.8966 49.4219Z" stroke="#1C3258"/>
<path d="M80.8914 75.2344H80.8906C79.3956 75.2344 78.1836 76.4463 78.1836 77.9413V78.7396C78.1836 80.2346 79.3956 81.4465 80.8906 81.4465H80.8914C82.3864 81.4465 83.5984 80.2346 83.5984 78.7396V77.9413C83.5984 76.4463 82.3864 75.2344 80.8914 75.2344Z" fill="#1C3258"/>
<path d="M80.8966 75.6523H80.8958C79.6287 75.6523 78.6016 76.6795 78.6016 77.9465V78.7448C78.6016 80.0118 79.6287 81.039 80.8958 81.039H80.8966C82.1637 81.039 83.1908 80.0118 83.1908 78.7448V77.9465C83.1908 76.6795 82.1637 75.6523 80.8966 75.6523Z" stroke="#1C3258"/>
</svg>
