<svg width="22" height="24" viewBox="0 0 22 24" fill="none" xmlns="http://www.w3.org/2000/svg">
<path d="M11.0007 0.699219C10.2023 0.699219 9.55733 1.3442 9.55733 2.14254V2.94989C6.28732 3.46858 3.78406 6.3011 3.78406 9.71995V11.2264C3.78406 13.2741 3.08496 15.2632 1.80852 16.8599L1.13648 17.7033C0.874877 18.028 0.825263 18.4746 1.00568 18.8489C1.18609 19.2233 1.56496 19.4623 1.97992 19.4623H20.0214C20.4363 19.4623 20.8152 19.2233 20.9956 18.8489C21.176 18.4746 21.1264 18.028 20.8648 17.7033L20.1928 16.8644C18.9163 15.2632 18.2172 13.2741 18.2172 11.2264V9.71995C18.2172 6.3011 15.714 3.46858 12.444 2.94989V2.14254C12.444 1.3442 11.799 0.699219 11.0007 0.699219ZM11.0007 5.02917H11.3615C13.9504 5.02917 16.0523 7.131 16.0523 9.71995V11.2264C16.0523 13.3869 16.6792 15.4932 17.8429 17.2974H4.15842C5.3221 15.4932 5.94904 13.3869 5.94904 11.2264V9.71995C5.94904 7.131 8.05087 5.02917 10.6398 5.02917H11.0007ZM13.8873 20.9057H8.11402C8.11402 21.6724 8.41621 22.4076 8.95745 22.9489C9.4987 23.4901 10.2339 23.7923 11.0007 23.7923C11.7674 23.7923 12.5026 23.4901 13.0438 22.9489C13.5851 22.4076 13.8873 21.6724 13.8873 20.9057Z" fill="#1A1C36"/>
</svg>
