<svg width="14" height="13" viewBox="0 0 14 13" fill="none" xmlns="http://www.w3.org/2000/svg">
<path d="M6.99996 3.61593C6.42956 3.61593 5.87196 3.78508 5.39769 4.10198C4.92341 4.41888 4.55376 4.8693 4.33548 5.39628C4.11719 5.92327 4.06008 6.50315 4.17136 7.06259C4.28264 7.62204 4.55732 8.13592 4.96065 8.53926C5.36399 8.9426 5.87787 9.21727 6.43732 9.32855C6.99676 9.43984 7.57664 9.38272 8.10363 9.16444C8.63062 8.94615 9.08104 8.5765 9.39794 8.10223C9.71484 7.62795 9.88398 7.07036 9.88398 6.49995C9.88319 5.7353 9.57908 5.0022 9.0384 4.46152C8.49771 3.92083 7.76461 3.61673 6.99996 3.61593ZM6.99996 8.42263C6.61969 8.42263 6.24796 8.30987 5.93178 8.0986C5.6156 7.88733 5.36916 7.58705 5.22364 7.23573C5.07812 6.8844 5.04004 6.49782 5.11423 6.12485C5.18841 5.75189 5.37153 5.4093 5.64042 5.14041C5.90932 4.87152 6.2519 4.6884 6.62487 4.61421C6.99783 4.54003 7.38442 4.5781 7.73574 4.72363C8.08706 4.86915 8.38735 5.11558 8.59861 5.43177C8.80988 5.74795 8.92264 6.11968 8.92264 6.49995C8.92264 7.00988 8.72008 7.49892 8.3595 7.85949C7.99893 8.22006 7.50989 8.42263 6.99996 8.42263ZM13.6056 5.25081C13.5922 5.18312 13.5644 5.11911 13.524 5.06312C13.4837 5.00714 13.4318 4.96049 13.3718 4.92636L11.5795 3.90493L11.5723 1.88492C11.5721 1.81535 11.5568 1.74666 11.5274 1.68359C11.4981 1.62051 11.4554 1.56457 11.4023 1.51961C10.7522 0.96966 10.0035 0.548214 9.19602 0.277677C9.13244 0.256155 9.06505 0.24819 8.9982 0.254296C8.93135 0.260401 8.86652 0.280442 8.80788 0.313127L6.99996 1.32373L5.19024 0.311324C5.13157 0.278455 5.06666 0.258263 4.99969 0.252054C4.93273 0.245844 4.86521 0.253754 4.8015 0.275274C3.99466 0.547788 3.24683 0.970842 2.59763 1.52201C2.54461 1.5669 2.50196 1.62275 2.47261 1.68572C2.44325 1.74868 2.4279 1.81725 2.42759 1.88672L2.41858 3.90854L0.62628 4.92996C0.566317 4.9641 0.514407 5.01075 0.474077 5.06673C0.433747 5.12271 0.405943 5.18673 0.392554 5.25441C0.228524 6.07869 0.228524 6.92722 0.392554 7.75149C0.405943 7.81918 0.433747 7.88319 0.474077 7.93918C0.514407 7.99516 0.566317 8.04181 0.62628 8.07595L2.41858 9.09737L2.42579 11.1174C2.42601 11.187 2.44132 11.2556 2.47068 11.3187C2.50004 11.3818 2.54274 11.4377 2.59583 11.4827C3.24597 12.0326 3.99467 12.4541 4.8021 12.7246C4.86569 12.7461 4.93307 12.7541 4.99993 12.748C5.06678 12.7419 5.13161 12.7219 5.19024 12.6892L6.99996 11.6762L8.80969 12.6886C8.8813 12.7285 8.96203 12.7492 9.04401 12.7487C9.09651 12.7486 9.14866 12.7401 9.19843 12.7234C10.0052 12.4513 10.753 12.0286 11.4023 11.4779C11.4553 11.433 11.498 11.3771 11.5273 11.3142C11.5567 11.2512 11.572 11.1826 11.5723 11.1132L11.5813 9.09136L13.3736 8.06994C13.4336 8.0358 13.4855 7.98916 13.5259 7.93317C13.5662 7.87719 13.594 7.81317 13.6074 7.74549C13.7705 6.92187 13.7699 6.07419 13.6056 5.25081ZM12.7043 7.34833L10.9877 8.32469C10.9125 8.36746 10.8502 8.42973 10.8075 8.50494C10.7726 8.56503 10.736 8.62872 10.6987 8.6888C10.651 8.76457 10.6256 8.85223 10.6254 8.94175L10.6164 10.8795C10.155 11.2418 9.64097 11.5315 9.09208 11.7387L7.36047 10.7737C7.28858 10.7339 7.2077 10.7132 7.12554 10.7136H7.11412C7.04142 10.7136 6.96812 10.7136 6.89542 10.7136C6.80943 10.7115 6.72442 10.7322 6.64907 10.7737L4.91626 11.7411C4.3662 11.5355 3.85075 11.2472 3.38773 10.8861L3.38112 8.95137C3.38082 8.86167 3.35543 8.77384 3.30782 8.69781C3.27057 8.63773 3.23391 8.57765 3.19967 8.51396C3.1572 8.43758 3.09493 8.37407 3.01942 8.3301L1.30102 7.35134C1.2121 6.78884 1.2121 6.21587 1.30102 5.65337L3.01461 4.67521C3.08982 4.63244 3.15209 4.57017 3.19486 4.49496C3.22971 4.43487 3.26636 4.37118 3.30361 4.3111C3.3513 4.23533 3.3767 4.14767 3.37691 4.05815L3.38593 2.12045C3.84733 1.75811 4.36136 1.46837 4.91025 1.26125L6.63946 2.22619C6.71472 2.26791 6.79979 2.28866 6.8858 2.28628C6.95851 2.28628 7.03181 2.28628 7.10451 2.28628C7.1905 2.28843 7.27551 2.26769 7.35085 2.22619L9.08367 1.25884C9.63373 1.46438 10.1492 1.7527 10.6122 2.11384L10.6188 4.04853C10.6191 4.13823 10.6445 4.22606 10.6921 4.30209C10.7294 4.36217 10.766 4.42225 10.8003 4.48594C10.8427 4.56232 10.905 4.62583 10.9805 4.6698L12.6989 5.64856C12.789 6.21149 12.79 6.78509 12.7019 7.34833H12.7043Z" fill="white"/>
</svg>
