<svg width="14" height="11" viewBox="0 0 14 11" fill="none" xmlns="http://www.w3.org/2000/svg">
<path d="M12.2885 2.20403H7.16046L5.49339 0.954026C5.32671 0.829661 5.12443 0.762235 4.91647 0.761719H1.71154C1.45652 0.761719 1.21195 0.863023 1.03163 1.04335C0.851305 1.22367 0.75 1.46824 0.75 1.72326V9.89633C0.75 10.1514 0.851305 10.3959 1.03163 10.5762C1.21195 10.7566 1.45652 10.8579 1.71154 10.8579H12.3419C12.5827 10.8576 12.8135 10.7618 12.9837 10.5916C13.1539 10.4213 13.2497 10.1906 13.25 9.94982V3.16557C13.25 2.91055 13.1487 2.66598 12.9684 2.48565C12.788 2.30533 12.5435 2.20403 12.2885 2.20403ZM12.2885 9.89633H1.71154V1.72326H4.91647L6.71154 3.06941C6.79476 3.13183 6.89598 3.16557 7 3.16557H12.2885V9.89633Z" fill="white"/>
</svg>
