<svg width="20" height="20" viewBox="0 0 20 20" fill="none" xmlns="http://www.w3.org/2000/svg">
<path d="M10 2C9.44682 2 8.9999 2.44687 8.9999 3V3.55938C6.73405 3.91875 4.9995 5.88125 4.9995 8.25V9.29375C4.9995 10.7125 4.51508 12.0906 3.63061 13.1969L3.16494 13.7812C2.98367 14.0063 2.9493 14.3156 3.07431 14.575C3.19932 14.8344 3.46185 15 3.74938 15H16.2506C16.5382 15 16.8007 14.8344 16.9257 14.575C17.0507 14.3156 17.0163 14.0063 16.8351 13.7812L16.3694 13.2C15.4849 12.0906 15.0005 10.7125 15.0005 9.29375V8.25C15.0005 5.88125 13.266 3.91875 11.0001 3.55937V3C11.0001 2.44687 10.5532 2 10 2ZM10 5H10.25C12.044 5 13.5003 6.45625 13.5003 8.25V9.29375C13.5003 10.7906 13.9348 12.25 14.7411 13.5H5.2589C6.06523 12.25 6.49965 10.7906 6.49965 9.29375V8.25C6.49965 6.45625 7.95605 5 9.74997 5H10ZM12.0002 16H7.9998C7.9998 16.5312 8.2092 17.0406 8.58423 17.4156C8.95927 17.7906 9.4687 18 10 18C10.5313 18 11.0407 17.7906 11.4158 17.4156C11.7908 17.0406 12.0002 16.5312 12.0002 16Z" fill="#1A1C36"/>
</svg>
