<svg width="13" height="14" viewBox="0 0 13 14" fill="none" xmlns="http://www.w3.org/2000/svg">
<path d="M12.3632 1.13638C12.2509 1.02415 12.1107 0.94388 11.957 0.903851C11.8034 0.863821 11.6419 0.865474 11.4891 0.90864H11.4807L0.766869 4.15951C0.592936 4.20964 0.43834 4.31144 0.323569 4.45141C0.208797 4.59139 0.139268 4.76294 0.124196 4.94332C0.109123 5.1237 0.149219 5.30441 0.23917 5.46149C0.32912 5.61857 0.464678 5.74461 0.627881 5.82291L5.368 8.13157L7.67331 12.8689C7.74501 13.0219 7.85901 13.1512 8.00183 13.2415C8.14466 13.3318 8.31035 13.3794 8.47933 13.3785C8.505 13.3785 8.53068 13.3774 8.55636 13.3752C8.7366 13.3606 8.90806 13.2912 9.04774 13.1764C9.18743 13.0615 9.28864 12.9067 9.33782 12.7327L12.5865 2.01887C12.5865 2.01608 12.5865 2.01329 12.5865 2.0105C12.6302 1.85809 12.6326 1.6968 12.5933 1.54317C12.5541 1.38955 12.4746 1.24915 12.3632 1.13638ZM8.48435 12.477L8.48156 12.4849V12.481L6.24547 7.88708L8.92476 5.20779C9.00497 5.12336 9.04902 5.01094 9.04753 4.8945C9.04604 4.77806 8.99912 4.6668 8.91678 4.58446C8.83443 4.50212 8.72318 4.4552 8.60674 4.45371C8.49029 4.45221 8.37788 4.49627 8.29345 4.57648L5.61416 7.25577L1.01861 5.01968H1.0147H1.02252L11.7313 1.76825L8.48435 12.477Z" fill="white"/>
</svg>
