<svg width="20" height="20" viewBox="0 0 20 20" fill="none" xmlns="http://www.w3.org/2000/svg">
<path d="M13.6368 10.8C14.2366 10.8 14.7645 10.472 15.0364 9.976L17.8996 4.784C18.0368 4.53727 18.0332 4.23638 17.8901 3.99301C17.7471 3.74964 17.486 3.60014 17.2038 3.6L5.36707 3.6L4.61528 2H2V3.6H3.59956L6.47877 9.672L5.39906 11.624C4.81523 12.696 5.58301 14 6.79868 14H16.396V12.4H6.79868L7.67844 10.8H13.6368ZM6.12686 5.2H15.8442L13.6368 9.2H8.02234L6.12686 5.2ZM6.79868 14.8C5.91892 14.8 5.20712 15.52 5.20712 16.4C5.20712 17.28 5.91892 18 6.79868 18C7.67844 18 8.39824 17.28 8.39824 16.4C8.39824 15.52 7.67844 14.8 6.79868 14.8ZM14.7965 14.8C13.9167 14.8 13.2049 15.52 13.2049 16.4C13.2049 17.28 13.9167 18 14.7965 18C15.6762 18 16.396 17.28 16.396 16.4C16.396 15.52 15.6762 14.8 14.7965 14.8Z" fill="#1A1C36"/>
</svg>
