<svg width="14" height="13" viewBox="0 0 14 13" fill="none" xmlns="http://www.w3.org/2000/svg">
<path d="M3.59091 0.250001C3.02903 0.250001 2.47977 0.416618 2.01259 0.728781C1.5454 1.04094 1.18127 1.48463 0.966253 2.00374C0.751231 2.52285 0.694971 3.09406 0.804589 3.64514C0.914206 4.19623 1.18478 4.70243 1.58208 5.09974C1.97939 5.49704 2.48559 5.76761 3.03668 5.87723C3.58776 5.98685 4.15897 5.93059 4.67808 5.71557C5.19719 5.50055 5.64088 5.13642 5.95304 4.66923C6.2652 4.20205 6.43182 3.65279 6.43182 3.09091C6.43182 2.33745 6.13251 1.61486 5.59974 1.08208C5.06696 0.54931 4.34437 0.250001 3.59091 0.250001ZM3.59091 4.79545C3.25378 4.79545 2.92423 4.69549 2.64392 4.50819C2.3636 4.32089 2.14513 4.05468 2.01612 3.74321C1.8871 3.43175 1.85335 3.08902 1.91912 2.75837C1.98489 2.42772 2.14723 2.124 2.38561 1.88561C2.624 1.64723 2.92772 1.48489 3.25837 1.41912C3.58902 1.35335 3.93175 1.3871 4.24321 1.51612C4.55468 1.64513 4.82089 1.8636 5.00819 2.14392C5.19549 2.42423 5.29545 2.75378 5.29545 3.09091C5.29545 3.54298 5.11587 3.97654 4.79621 4.29621C4.47654 4.61587 4.04298 4.79545 3.59091 4.79545ZM10.4091 5.93182C10.971 5.93182 11.5202 5.7652 11.9874 5.45304C12.4546 5.14088 12.8187 4.69719 13.0337 4.17808C13.2488 3.65897 13.305 3.08776 13.1954 2.53668C13.0858 1.98559 12.8152 1.47939 12.4179 1.08208C12.0206 0.684776 11.5144 0.414206 10.9633 0.304589C10.4122 0.194971 9.84103 0.251231 9.32192 0.466253C8.80281 0.681274 8.35912 1.0454 8.04696 1.51259C7.7348 1.97977 7.56818 2.52903 7.56818 3.09091C7.56818 3.84437 7.86749 4.56696 8.40026 5.09974C8.93304 5.63251 9.65563 5.93182 10.4091 5.93182ZM10.4091 1.38636C10.7462 1.38636 11.0758 1.48633 11.3561 1.67363C11.6364 1.86093 11.8549 2.12714 11.9839 2.43861C12.1129 2.75007 12.1467 3.0928 12.0809 3.42345C12.0151 3.7541 11.8528 4.05782 11.6144 4.29621C11.376 4.53459 11.0723 4.69693 10.7416 4.7627C10.411 4.82847 10.0683 4.79472 9.75679 4.6657C9.44532 4.53669 9.17911 4.31822 8.99181 4.0379C8.80451 3.75759 8.70455 3.42804 8.70455 3.09091C8.70455 2.63884 8.88413 2.20528 9.20379 1.88561C9.52346 1.56595 9.95702 1.38636 10.4091 1.38636ZM3.59091 7.06818C3.02903 7.06818 2.47977 7.2348 2.01259 7.54696C1.5454 7.85912 1.18127 8.30281 0.966253 8.82192C0.751231 9.34103 0.694971 9.91224 0.804589 10.4633C0.914206 11.0144 1.18478 11.5206 1.58208 11.9179C1.97939 12.3152 2.48559 12.5858 3.03668 12.6954C3.58776 12.805 4.15897 12.7488 4.67808 12.5337C5.19719 12.3187 5.64088 11.9546 5.95304 11.4874C6.2652 11.0202 6.43182 10.471 6.43182 9.90909C6.43182 9.15563 6.13251 8.43304 5.59974 7.90026C5.06696 7.36749 4.34437 7.06818 3.59091 7.06818ZM3.59091 11.6136C3.25378 11.6136 2.92423 11.5137 2.64392 11.3264C2.3636 11.1391 2.14513 10.8729 2.01612 10.5614C1.8871 10.2499 1.85335 9.9072 1.91912 9.57655C1.98489 9.2459 2.14723 8.94218 2.38561 8.70379C2.624 8.46541 2.92772 8.30307 3.25837 8.2373C3.58902 8.17153 3.93175 8.20528 4.24321 8.3343C4.55468 8.46331 4.82089 8.68178 5.00819 8.9621C5.19549 9.24241 5.29545 9.57196 5.29545 9.90909C5.29545 10.3612 5.11587 10.7947 4.79621 11.1144C4.47654 11.434 4.04298 11.6136 3.59091 11.6136ZM10.4091 7.06818C9.84721 7.06818 9.29795 7.2348 8.83077 7.54696C8.36358 7.85912 7.99945 8.30281 7.78443 8.82192C7.56941 9.34103 7.51315 9.91224 7.62277 10.4633C7.73239 11.0144 8.00296 11.5206 8.40026 11.9179C8.79757 12.3152 9.30377 12.5858 9.85486 12.6954C10.4059 12.805 10.9772 12.7488 11.4963 12.5337C12.0154 12.3187 12.4591 11.9546 12.7712 11.4874C13.0834 11.0202 13.25 10.471 13.25 9.90909C13.25 9.15563 12.9507 8.43304 12.4179 7.90026C11.8851 7.36749 11.1625 7.06818 10.4091 7.06818ZM10.4091 11.6136C10.072 11.6136 9.74241 11.5137 9.4621 11.3264C9.18178 11.1391 8.96331 10.8729 8.8343 10.5614C8.70528 10.2499 8.67153 9.9072 8.7373 9.57655C8.80307 9.2459 8.96541 8.94218 9.20379 8.70379C9.44218 8.46541 9.7459 8.30307 10.0765 8.2373C10.4072 8.17153 10.7499 8.20528 11.0614 8.3343C11.3729 8.46331 11.6391 8.68178 11.8264 8.9621C12.0137 9.24241 12.1136 9.57196 12.1136 9.90909C12.1136 10.3612 11.934 10.7947 11.6144 11.1144C11.2947 11.434 10.8612 11.6136 10.4091 11.6136Z" fill="white"/>
</svg>
