<svg width="18" height="10" viewBox="0 0 18 10" fill="none" xmlns="http://www.w3.org/2000/svg">
<path d="M17.031 2.03104L9.53104 9.53104C9.46139 9.60077 9.37867 9.65609 9.28762 9.69384C9.19657 9.73158 9.09898 9.75101 9.00042 9.75101C8.90186 9.75101 8.80426 9.73158 8.71321 9.69384C8.62216 9.65609 8.53945 9.60077 8.46979 9.53104L0.969792 2.03104C0.829062 1.89031 0.75 1.69944 0.75 1.50042C0.75 1.30139 0.829062 1.11052 0.969792 0.969792C1.11052 0.829061 1.30139 0.75 1.50042 0.75C1.69944 0.75 1.89031 0.829061 2.03104 0.969792L9.00042 7.9401L15.9698 0.969792C16.0395 0.900109 16.1222 0.844834 16.2132 0.807122C16.3043 0.76941 16.4019 0.75 16.5004 0.75C16.599 0.75 16.6965 0.76941 16.7876 0.807122C16.8786 0.844834 16.9614 0.900109 17.031 0.969792C17.1007 1.03947 17.156 1.1222 17.1937 1.21324C17.2314 1.30429 17.2508 1.40187 17.2508 1.50042C17.2508 1.59896 17.2314 1.69654 17.1937 1.78759C17.156 1.87863 17.1007 1.96136 17.031 2.03104Z" fill="white"/>
</svg>
