<svg width="12" height="13" viewBox="0 0 12 13" fill="none" xmlns="http://www.w3.org/2000/svg">
<path d="M11.1433 3.75601L7.77794 0.390625C7.73326 0.345993 7.68023 0.310602 7.62186 0.286473C7.5635 0.262344 7.50095 0.24995 7.4378 0.25H1.66857C1.41355 0.25 1.16898 0.351305 0.988659 0.531628C0.808336 0.711952 0.707031 0.956523 0.707031 1.21154V11.7885C0.707031 12.0435 0.808336 12.288 0.988659 12.4684C1.16898 12.6487 1.41355 12.75 1.66857 12.75H10.3224C10.5774 12.75 10.822 12.6487 11.0023 12.4684C11.1826 12.288 11.284 12.0435 11.284 11.7885V4.09615C11.284 4.033 11.2716 3.97045 11.2475 3.91209C11.2234 3.85373 11.188 3.80069 11.1433 3.75601ZM7.91857 1.89123L9.64273 3.61538H7.91857V1.89123ZM10.3224 11.7885H1.66857V1.21154H6.95703V4.09615C6.95703 4.22366 7.00768 4.34595 7.09784 4.43611C7.18801 4.52627 7.31029 4.57692 7.4378 4.57692H10.3224V11.7885Z" fill="white"/>
</svg>
