<svg width="25" height="24" viewBox="0 0 25 24" fill="none" xmlns="http://www.w3.org/2000/svg">
<path d="M11.1007 19.0563H13.453V16.704H11.1007V19.0563ZM12.2769 0.238281C5.78466 0.238281 0.515625 5.50731 0.515625 11.9995C0.515625 18.4917 5.78466 23.7607 12.2769 23.7607C18.7691 23.7607 24.0381 18.4917 24.0381 11.9995C24.0381 5.50731 18.7691 0.238281 12.2769 0.238281ZM12.2769 21.4085C7.09015 21.4085 2.86787 17.1862 2.86787 11.9995C2.86787 6.81281 7.09015 2.59053 12.2769 2.59053C17.4636 2.59053 21.6858 6.81281 21.6858 11.9995C21.6858 17.1862 17.4636 21.4085 12.2769 21.4085ZM12.2769 4.94277C9.67762 4.94277 7.57236 7.04803 7.57236 9.64727H9.92461C9.92461 8.35353 10.9831 7.29502 12.2769 7.29502C13.5706 7.29502 14.6291 8.35353 14.6291 9.64727C14.6291 11.9995 11.1007 11.7055 11.1007 15.5279H13.453C13.453 12.8816 16.9813 12.5876 16.9813 9.64727C16.9813 7.04803 14.8761 4.94277 12.2769 4.94277Z" fill="#1A1C36"/>
</svg>
