<svg width="22" height="22" viewBox="0 0 22 22" fill="none" xmlns="http://www.w3.org/2000/svg">
<path d="M16.0226 12.0758C16.8284 12.0758 17.5375 11.6353 17.9027 10.9692L21.7489 3.99659C21.9332 3.66525 21.9283 3.26116 21.7362 2.93433C21.5441 2.6075 21.1934 2.40673 20.8143 2.40654L4.91369 2.40654L3.90379 0.257812H0.390625V2.40654H2.53935L6.40705 10.5609L4.95667 13.1824C4.17238 14.622 5.20377 16.3733 6.8368 16.3733H19.7291V14.2245H6.8368L8.0186 12.0758H16.0226ZM5.93434 4.55526H18.9878L16.0226 9.92707H8.48057L5.93434 4.55526ZM6.8368 17.4476C5.655 17.4476 4.69882 18.4145 4.69882 19.5963C4.69882 20.7781 5.655 21.7451 6.8368 21.7451C8.0186 21.7451 8.98553 20.7781 8.98553 19.5963C8.98553 18.4145 8.0186 17.4476 6.8368 17.4476ZM17.5804 17.4476C16.3986 17.4476 15.4424 18.4145 15.4424 19.5963C15.4424 20.7781 16.3986 21.7451 17.5804 21.7451C18.7622 21.7451 19.7291 20.7781 19.7291 19.5963C19.7291 18.4145 18.7622 17.4476 17.5804 17.4476Z" fill="#1A1C36"/>
</svg>
