<svg width="22" height="22" viewBox="0 0 22 22" fill="none" xmlns="http://www.w3.org/2000/svg">
<path d="M3.125 21.0939H16.521C18.9871 21.0939 20.9863 19.0947 20.9863 16.6286V3.23266C20.9863 1.9996 19.9867 1 18.7536 1H7.59032C6.35726 1 5.35766 1.9996 5.35766 3.23266V17.7449C5.35766 19.5947 4.97476 21.0939 3.125 21.0939Z" stroke="#1A1C36" stroke-width="1.6" stroke-linecap="round" stroke-linejoin="round"/>
<path d="M0.890625 8.81469C0.890625 7.58163 1.89022 6.58203 3.12329 6.58203H5.35594V18.3035C5.35594 19.844 4.66382 21.0943 3.12328 21.0943C1.58275 21.0943 0.890625 19.844 0.890625 18.3035V8.81469Z" stroke="#1A1C36" stroke-width="1.6" stroke-linecap="round" stroke-linejoin="round"/>
<path d="M12.053 6.58117C12.053 7.19771 11.5532 7.6975 10.9366 7.6975C10.3201 7.6975 9.82031 7.19771 9.82031 6.58117C9.82031 5.96464 10.3201 5.46484 10.9366 5.46484C11.5532 5.46484 12.053 5.96464 12.053 6.58117Z" stroke="#1A1C36" stroke-width="1.6" stroke-linecap="round"/>
<path d="M9.82031 13.2812H16.5183M9.82031 16.6302H13.1693" stroke="#1A1C36" stroke-width="1.6" stroke-linecap="round"/>
</svg>
