<svg width="16" height="16" viewBox="0 0 16 16" fill="none" xmlns="http://www.w3.org/2000/svg">
<path d="M11.4917 10.1809H10.7778L10.5098 9.95711C11.3578 8.92796 11.8934 7.63002 11.8934 6.1534C11.8934 2.93132 9.30492 0.335938 6.09246 0.335938C2.92398 0.335938 0.335938 2.93132 0.335938 6.1534C0.335938 9.37548 2.92398 11.9708 6.13692 11.9708C7.56493 11.9708 8.90357 11.4338 9.92978 10.5837L10.1974 10.8075V11.5234L14.6597 15.9983L15.9983 14.6558L11.4917 10.1809ZM6.13692 10.1809C3.90577 10.1809 2.12088 8.39083 2.12088 6.1534C2.12088 3.91589 3.90577 2.12597 6.13692 2.12597C8.36799 2.12597 10.1529 3.91589 10.1529 6.1534C10.1529 8.39083 8.36799 10.1809 6.13692 10.1809Z" fill="white"/>
</svg>
