<svg width="44" height="19" viewBox="0 0 44 19" fill="none" xmlns="http://www.w3.org/2000/svg">
<path d="M40.8705 17.5844L34.4879 0.0115959L34.4835 0H34.3575L33.0432 3.61117L30.6504 10.1853L30.6448 10.1801C29.8155 9.44839 28.6455 8.99095 27.172 8.82061L26.7225 8.77422L27.1684 8.71704C29.5983 8.28039 31.2318 6.74571 31.2318 4.89674C31.2318 2.3612 28.847 0.591402 25.431 0.591402H18.3234V0.719758H20.3887V13.8213L15.3728 0.0115959L15.3684 0H15.2424L13.9281 3.61117L8.85859 17.5392L8.8274 17.5428C8.74075 17.5535 8.65506 17.562 8.57029 17.5684C8.44273 17.5784 8.31597 17.5844 8.18882 17.5844H3.06656L12.8032 0.719754L12.8756 0.592997H0.967271V5.81003H1.09363C1.11602 3.26889 2.59592 0.719755 5.86561 0.719755H9.81027L0 17.7108H13.2163V12.7125H13.0899C13.0728 14.9273 11.8172 17.031 9.08691 17.506L9.00014 17.5208L11.0794 11.8056H16.9043L19.0031 17.5844H16.9326V17.7108H25.0591V17.5844H22.9798V8.86738H25.379C27.8205 8.86738 29.2209 9.95821 29.2209 11.8592V13.4054C29.2209 13.5758 29.2325 13.8249 29.2453 14.0332V14.0408L27.9557 17.5836H26.2711V17.71H29.7583V17.5836H28.0917L29.2661 14.3575C29.2685 14.3887 29.2697 14.4075 29.2697 14.4075L29.302 14.6982L29.3332 14.8905C29.5292 16.0801 29.9842 16.9546 30.6852 17.4897L30.7859 17.5628C31.3186 17.9331 31.9803 18.1206 32.7541 18.1206C33.7789 18.1206 34.4623 17.8651 35.0265 17.2637L34.9525 17.1942C34.4327 17.674 33.9964 17.8683 33.4498 17.8683C32.5186 17.8683 32.0311 16.7387 32.0311 15.6247V13.4582C32.0361 12.9207 31.9519 12.386 31.782 11.876L31.7588 11.8088V11.8064H36.0194L38.1182 17.5852H36.0477V17.7116H43.0802V17.5852L40.8705 17.5844ZM11.1258 11.6792L13.9952 3.79591L16.8583 11.6792H11.1258ZM22.981 8.74063C22.3815 6.73541 22.981 0.719755 22.981 0.719755H24.8124C27.2587 0.719755 28.5503 2.17406 28.5503 4.92393C28.5503 7.84853 27.8089 8.74063 25.379 8.74063C25.379 8.74063 23.5805 10.7458 22.981 8.74063ZM31.7092 11.6792L31.6968 11.648C31.5075 11.1869 31.2319 10.7662 30.8847 10.4085L30.7647 10.2885L30.7519 10.2765L33.1087 3.79591L35.9718 11.6792L31.7092 11.6792Z" fill="#ffffff"/>
</svg>
