<svg width="15" height="13" viewBox="0 0 15 13" fill="none" xmlns="http://www.w3.org/2000/svg">
<path d="M6.48407 11.7885C6.48407 11.9786 6.42768 12.1645 6.32203 12.3227C6.21637 12.4808 6.0662 12.604 5.8905 12.6768C5.7148 12.7496 5.52147 12.7686 5.33495 12.7315C5.14843 12.6944 4.9771 12.6028 4.84263 12.4684C4.70815 12.3339 4.61657 12.1626 4.57947 11.976C4.54237 11.7895 4.56141 11.5962 4.63419 11.4205C4.70697 11.2448 4.83021 11.0946 4.98833 10.989C5.14646 10.8833 5.33236 10.8269 5.52254 10.8269C5.77755 10.8269 6.02212 10.9282 6.20245 11.1086C6.38277 11.2889 6.48407 11.5334 6.48407 11.7885ZM11.7725 10.8269C11.5824 10.8269 11.3965 10.8833 11.2383 10.989C11.0802 11.0946 10.957 11.2448 10.8842 11.4205C10.8114 11.5962 10.7924 11.7895 10.8295 11.976C10.8666 12.1626 10.9582 12.3339 11.0926 12.4684C11.2271 12.6028 11.3984 12.6944 11.5849 12.7315C11.7715 12.7686 11.9648 12.7496 12.1405 12.6768C12.3162 12.604 12.4664 12.4808 12.572 12.3227C12.6777 12.1645 12.7341 11.9786 12.7341 11.7885C12.7341 11.5334 12.6328 11.2889 12.4524 11.1086C12.2721 10.9282 12.0276 10.8269 11.7725 10.8269ZM14.6397 3.26322L13.0989 8.80889C13.0141 9.11183 12.8329 9.37888 12.5827 9.56954C12.3325 9.7602 12.027 9.86406 11.7124 9.86538H5.77254C5.45705 9.86524 5.15027 9.76192 4.89898 9.57117C4.64769 9.38042 4.46568 9.11272 4.38071 8.80889L2.27254 1.21154H1.19561C1.06811 1.21154 0.945819 1.16089 0.855658 1.07072C0.765496 0.980563 0.714844 0.858277 0.714844 0.730769C0.714844 0.603261 0.765496 0.480976 0.855658 0.390814C0.945819 0.300652 1.06811 0.25 1.19561 0.25H2.63792C2.74303 0.24998 2.84525 0.284406 2.92893 0.348008C3.01261 0.411611 3.07315 0.500885 3.10126 0.602163L3.67097 2.65385H14.1764C14.2505 2.65383 14.3236 2.67095 14.39 2.70387C14.4564 2.7368 14.5143 2.78462 14.5592 2.84362C14.604 2.90262 14.6347 2.9712 14.6486 3.04398C14.6626 3.11677 14.6595 3.1918 14.6397 3.26322ZM13.5436 3.61538H3.9384L5.30919 8.55168C5.33731 8.65296 5.39784 8.74223 5.48153 8.80584C5.56521 8.86944 5.66743 8.90387 5.77254 8.90385H11.7124C11.8175 8.90387 11.9198 8.86944 12.0034 8.80584C12.0871 8.74223 12.1477 8.65296 12.1758 8.55168L13.5436 3.61538Z" fill="white"/>
</svg>
