<svg width="89" height="38" viewBox="0 0 89 38" fill="none" xmlns="http://www.w3.org/2000/svg">
<path d="M84.2524 36.0026L71.2072 0.0862004L71.1982 0.0625H70.9408L68.2544 7.44324L63.3639 20.8799L63.3524 20.8693C61.6574 19.3737 59.2661 18.4388 56.2545 18.0906L55.3359 17.9958L56.2471 17.8789C61.2137 16.9865 64.5522 13.8498 64.5522 10.0708C64.5522 4.88847 59.678 1.27124 52.6961 1.27124H38.1692V1.53359H42.3904V28.3113L32.1386 0.0862004L32.1296 0.0625H31.8721L29.1858 7.44324L18.8245 35.9103L18.7607 35.9176C18.5836 35.9394 18.4085 35.9569 18.2352 35.9699C17.9745 35.9904 17.7154 36.0026 17.4556 36.0026H6.98637L26.8868 1.53358L27.0347 1.2745H2.69572V11.9374H2.95398C2.99974 6.74366 6.02445 1.53358 12.7072 1.53358H20.7696L0.71875 36.2609H27.7311V26.045H27.4728C27.4377 30.5719 24.8714 34.8715 19.2911 35.8424L19.1138 35.8727L23.3636 24.1915H35.2687L39.5585 36.0026H35.3267V36.2609H51.9361V36.0026H47.6863V18.1862H52.5899C57.5801 18.1862 60.4422 20.4157 60.4422 24.301V27.4614C60.4422 27.8095 60.4659 28.3187 60.492 28.7445V28.76L57.8563 36.001H54.4132V36.2593H61.5406V36.001H58.1342L60.5345 29.4073C60.5394 29.471 60.5419 29.5094 60.5419 29.5094L60.6081 30.1036L60.6718 30.4967C61.0723 32.9281 62.0023 34.7154 63.435 35.8089L63.6409 35.9585C64.7295 36.7153 66.0821 37.0986 67.6635 37.0986C69.7582 37.0986 71.1549 36.5763 72.3081 35.3472L72.1569 35.205C71.0944 36.1857 70.2028 36.5829 69.0856 36.5829C67.1822 36.5829 66.1859 34.2741 66.1859 31.9972V27.5693C66.1961 26.4705 66.024 25.3778 65.6768 24.3353L65.6294 24.198V24.1931H74.3373L78.6272 36.0043H74.3954V36.2625H88.7686V36.0043L84.2524 36.0026ZM23.4584 23.9332L29.3231 7.82081L35.1747 23.9332H23.4584ZM47.6887 17.9271V1.53358H51.4318C56.4318 1.53358 59.0716 4.50598 59.0716 10.1263C59.0716 16.1038 57.5564 17.9271 52.5899 17.9271H47.6887ZM65.528 23.9332L65.5027 23.8695C65.1157 22.927 64.5524 22.0671 63.8428 21.336L63.5976 21.0908L63.5715 21.0663L68.3885 7.82082L74.2401 23.9332L65.528 23.9332Z" fill="white"/>
</svg>
