<svg width="15" height="15" viewBox="0 0 15 15" fill="none" xmlns="http://www.w3.org/2000/svg">
<g clip-path="url(#clip0_33_5315)">
<path d="M13.084 13.084L10.231 10.226M11.812 6.406C11.812 7.47521 11.4949 8.5204 10.9009 9.40941C10.3069 10.2984 9.46261 10.9913 8.47479 11.4005C7.48697 11.8097 6.40001 11.9167 5.35134 11.7081C4.30268 11.4995 3.33943 10.9847 2.58338 10.2286C1.82734 9.47258 1.31247 8.50932 1.10388 7.46066C0.895286 6.412 1.00234 5.32503 1.41151 4.33721C1.82068 3.3494 2.51358 2.50509 3.40259 1.91108C4.2916 1.31706 5.3368 1 6.406 1C7.83976 1 9.2148 1.56956 10.2286 2.58338C11.2424 3.5972 11.812 4.97224 11.812 6.406Z" stroke="#053F5C" stroke-width="2" stroke-linecap="round"/>
</g>
<defs>
<clipPath id="clip0_33_5315">
<rect width="14.498" height="14.498" fill="white"/>
</clipPath>
</defs>
</svg>
