<svg width="13" height="14" viewBox="0 0 13 14" fill="none" xmlns="http://www.w3.org/2000/svg">
<path d="M12.2701 4.02301L9.47699 1.23048C9.38413 1.13759 9.27388 1.06391 9.15253 1.01364C9.03119 0.963374 8.90114 0.9375 8.76979 0.9375C8.63845 0.9375 8.5084 0.963374 8.38705 1.01364C8.26571 1.06391 8.15546 1.13759 8.0626 1.23048L0.355633 8.93744C0.26237 9.02997 0.188427 9.14011 0.138105 9.26146C0.0877833 9.38281 0.0620853 9.51295 0.0625051 9.64433V12.4375C0.0625051 12.7027 0.167863 12.9571 0.355402 13.1446C0.54294 13.3321 0.797297 13.4375 1.06252 13.4375H3.85567C3.98705 13.4379 4.11719 13.4122 4.23854 13.3619C4.3599 13.3116 4.47003 13.2376 4.56256 13.1444L9.79199 7.91556L10.0095 8.78432L7.70947 11.0837C7.61565 11.1775 7.56291 11.3046 7.56285 11.4373C7.56279 11.5699 7.61542 11.6971 7.70916 11.7909C7.8029 11.8847 7.93006 11.9375 8.06269 11.9375C8.19531 11.9376 8.32253 11.885 8.41635 11.7912L10.9164 9.2912C10.9775 9.23016 11.0218 9.15432 11.0449 9.07108C11.068 8.98783 11.0692 8.90001 11.0483 8.81619L10.617 7.09055L12.2701 5.4374C12.363 5.34454 12.4367 5.23429 12.487 5.11295C12.5373 4.9916 12.5631 4.86155 12.5631 4.73021C12.5631 4.59886 12.5373 4.46881 12.487 4.34746C12.4367 4.22612 12.363 4.11587 12.2701 4.02301ZM1.06252 10.6443L2.85566 12.4375H1.06252V10.6443ZM4.06255 12.2306L1.26939 9.43745L6.56258 4.14426L9.35574 6.93742L4.06255 12.2306ZM10.0626 6.23054L7.27009 3.43738L8.77011 1.93736L11.5626 4.73052L10.0626 6.23054Z" fill="white"/>
</svg>
