<svg width="16" height="14" viewBox="0 0 16 14" fill="none" xmlns="http://www.w3.org/2000/svg">
<path d="M10.9918 3.92663C10.9918 3.33544 10.8165 2.75752 10.4881 2.26596C10.1596 1.7744 9.6928 1.39128 9.14661 1.16504C8.60042 0.938795 7.9994 0.8796 7.41957 0.994937C6.83973 1.11027 6.30712 1.39496 5.88908 1.813C5.47105 2.23103 5.18636 2.76365 5.07102 3.34348C4.95569 3.92331 5.01488 4.52433 5.24112 5.07052C5.46736 5.61671 5.85049 6.08355 6.34205 6.412C6.83361 6.74045 7.41152 6.91576 8.00272 6.91576C8.79521 6.91486 9.55498 6.59965 10.1154 6.03927C10.6757 5.4789 10.9909 4.71912 10.9918 3.92663ZM8.00272 5.8288C7.6265 5.8288 7.25874 5.71724 6.94593 5.50823C6.63312 5.29922 6.38931 5.00214 6.24534 4.65456C6.10137 4.30698 6.0637 3.92452 6.13709 3.55554C6.21049 3.18655 6.39165 2.84762 6.65768 2.58159C6.9237 2.31557 7.26264 2.1344 7.63162 2.06101C8.00061 1.98761 8.38307 2.02528 8.73065 2.16925C9.07823 2.31322 9.3753 2.55703 9.58432 2.86984C9.79333 3.18265 9.90489 3.55042 9.90489 3.92663C9.90489 4.43112 9.70448 4.91494 9.34776 5.27167C8.99103 5.6284 8.50721 5.8288 8.00272 5.8288ZM12.0788 7.45924C11.4876 7.45924 10.9097 7.63455 10.4181 7.963C9.92657 8.29145 9.54345 8.75829 9.31721 9.30448C9.09097 9.85067 9.03177 10.4517 9.14711 11.0315C9.26245 11.6114 9.54713 12.144 9.96517 12.562C10.3832 12.98 10.9158 13.2647 11.4957 13.3801C12.0755 13.4954 12.6765 13.4362 13.2227 13.21C13.7689 12.9837 14.2357 12.6006 14.5642 12.109C14.8926 11.6175 15.0679 11.0396 15.0679 10.4484C15.067 9.65588 14.7518 8.8961 14.1914 8.33573C13.6311 7.77535 12.8713 7.46014 12.0788 7.45924ZM12.0788 12.3505C11.7026 12.3505 11.3348 12.239 11.022 12.03C10.7092 11.821 10.4654 11.5239 10.3214 11.1763C10.1775 10.8287 10.1398 10.4463 10.2132 10.0773C10.2866 9.70829 10.4677 9.36935 10.7338 9.10333C10.9998 8.83731 11.3387 8.65614 11.7077 8.58275C12.0767 8.50935 12.4592 8.54702 12.8067 8.69099C13.1543 8.83496 13.4514 9.07877 13.6604 9.39158C13.8694 9.70439 13.981 10.0722 13.981 10.4484C13.981 10.9529 13.7806 11.4367 13.4238 11.7934C13.0671 12.1501 12.5833 12.3505 12.0788 12.3505ZM3.92663 7.45924C3.33544 7.45924 2.75752 7.63455 2.26596 7.963C1.7744 8.29145 1.39128 8.75829 1.16504 9.30448C0.938795 9.85067 0.8796 10.4517 0.994937 11.0315C1.11027 11.6114 1.39496 12.144 1.813 12.562C2.23103 12.98 2.76365 13.2647 3.34348 13.3801C3.92332 13.4954 4.52433 13.4362 5.07052 13.21C5.61671 12.9837 6.08355 12.6006 6.412 12.109C6.74045 11.6175 6.91576 11.0396 6.91576 10.4484C6.91486 9.65588 6.59965 8.8961 6.03927 8.33573C5.4789 7.77535 4.71912 7.46014 3.92663 7.45924ZM3.92663 12.3505C3.55042 12.3505 3.18265 12.239 2.86984 12.03C2.55703 11.821 2.31322 11.5239 2.16925 11.1763C2.02528 10.8287 1.98761 10.4463 2.06101 10.0773C2.1344 9.70829 2.31557 9.36935 2.58159 9.10333C2.84762 8.83731 3.18655 8.65614 3.55554 8.58275C3.92452 8.50935 4.30698 8.54702 4.65456 8.69099C5.00214 8.83496 5.29922 9.07877 5.50823 9.39158C5.71724 9.70439 5.82881 10.0722 5.82881 10.4484C5.82881 10.9529 5.6284 11.4367 5.27167 11.7934C4.91494 12.1501 4.43112 12.3505 3.92663 12.3505Z" fill="white"/>
</svg>
