<svg width="20" height="20" viewBox="0 0 20 20" fill="none" xmlns="http://www.w3.org/2000/svg">
<path d="M12.5 6C12.5 4.61929 11.3807 3.5 10 3.5C8.61929 3.5 7.5 4.61929 7.5 6C7.5 7.38071 8.61929 8.5 10 8.5C11.3807 8.5 12.5 7.38071 12.5 6ZM6 6C6 3.79086 7.79086 2 10 2C12.2091 2 14 3.79086 14 6C14 8.20914 12.2091 10 10 10C7.79086 10 6 8.20914 6 6ZM4.54063 16.5H15.4594C15.1812 14.5219 13.4812 13 11.4281 13H8.57188C6.51875 13 4.81875 14.5219 4.54063 16.5ZM3 17.0719C3 13.9937 5.49375 11.5 8.57187 11.5H11.4281C14.5062 11.5 17 13.9937 17 17.0719C17 17.5844 16.5844 18 16.0719 18H3.92813C3.41562 18 3 17.5844 3 17.0719Z" fill="white"/>
</svg>
