<svg width="14" height="15" viewBox="0 0 14 15" fill="none" xmlns="http://www.w3.org/2000/svg">
<path d="M3.00363 5.72901H4.38539V10.0742C4.38539 10.5521 4.77645 10.9432 5.25442 10.9432H8.73053C9.20849 10.9432 9.59955 10.5521 9.59955 10.0742V5.72901H10.9813C11.7547 5.72901 12.1458 4.79046 11.5983 4.24298L7.60948 0.254142C7.44711 0.0914359 7.22668 0 6.99681 0C6.76695 0 6.54652 0.0914359 6.38415 0.254142L2.39532 4.24298C1.84783 4.79046 2.2302 5.72901 3.00363 5.72901ZM0.917969 13.5503C0.917969 14.0282 1.30903 14.4193 1.787 14.4193H12.2153C12.6933 14.4193 13.0844 14.0282 13.0844 13.5503C13.0844 13.0723 12.6933 12.6812 12.2153 12.6812H1.787C1.30903 12.6812 0.917969 13.0723 0.917969 13.5503Z" fill="#46679F"/>
</svg>
