<svg width="64" height="69" viewBox="0 0 64 69" fill="none" xmlns="http://www.w3.org/2000/svg">
<mask id="mask0_2704_6291" style="mask-type:alpha" maskUnits="userSpaceOnUse" x="0" y="0" width="64" height="69">
<rect y="0.0234375" width="63.0565" height="68.7646" fill="#D9D9D9"/>
</mask>
<g mask="url(#mask0_2704_6291)">
<path d="M61.8241 14.8099L33.6005 0.502468C32.3468 -0.133034 30.866 -0.1364 29.6095 0.493423L1.32141 14.673C0.49587 15.0868 0.0817522 15.8823 0.079943 16.6787L5.68438e-06 51.9902C-0.00176135 52.7867 0.408444 53.5841 1.23213 54.0012L29.456 68.3087C30.083 68.6266 30.7666 68.7863 31.4505 68.7879C32.1344 68.7895 32.8187 68.6327 33.4471 68.3177L61.7354 54.1381C62.561 53.7247 62.9748 52.9292 62.9766 52.1327L63.0565 16.8212C63.0583 16.0248 62.6478 15.2275 61.8241 14.8099Z" fill="#F5B977"/>
<path d="M63.0156 16.75V52.0616C63.0156 52.8581 62.6037 53.6546 61.7791 54.0698L33.5228 68.3134C32.8951 68.6299 32.2112 68.7881 31.5273 68.7881V16.75H63.0156Z" fill="#DE9761"/>
<path d="M61.779 18.7582L33.5228 33.0018C32.2675 33.6347 30.7871 33.6347 29.5318 33.0018L18.9426 27.6636L10.7121 23.5149L1.27564 18.7582C-0.37313 17.9272 -0.37313 15.5728 1.27564 14.7417L29.5318 0.498171C30.7871 -0.134807 32.2675 -0.134807 33.5228 0.498171L61.779 14.7417C63.4277 15.5728 63.4277 17.9272 61.779 18.7582Z" fill="#F6CF94"/>
<path d="M53.1806 10.4065L18.9454 27.6641L10.7148 23.5153L44.9506 6.25781L53.1806 10.4065Z" fill="#5B3731"/>
<path d="M18.9454 27.6644V44.4929L10.7148 40.3441V23.5156L18.9454 27.6644Z" fill="#442723"/>
<path d="M24.7953 62.6503C24.795 62.7867 24.8911 62.9523 25.0092 63.0206L26.6688 63.9789C26.7877 64.0472 26.884 63.9926 26.8845 63.8564C26.8845 63.8043 26.8705 63.7469 26.8458 63.6917C26.8207 63.637 26.7855 63.5842 26.7431 63.542L26.0894 62.8932L26.0938 61.3383C26.7692 61.593 27.2838 61.2124 27.2863 60.3987L27.2936 57.8182L26.2624 57.2227V58.4502L25.7839 58.0085L25.8207 59.4808L25.2318 57.53H25.5263V56.798L24.4213 56.1602L24.4141 58.7402C24.4118 59.5543 24.923 60.5272 25.5977 61.0521L25.5933 62.6068L24.9378 62.4995C24.8528 62.486 24.7957 62.5465 24.7953 62.6503Z" fill="#191616"/>
<path d="M17.1252 57.6949C16.9862 57.6144 16.8732 57.6784 16.8727 57.8383L16.8711 58.399C16.8706 58.5583 16.983 58.7529 17.1219 58.8331L22.0684 61.689C22.207 61.7689 22.3201 61.7045 22.3206 61.5452L22.3221 60.9846C22.3225 60.8248 22.2103 60.6307 22.0717 60.5507L17.1252 57.6949Z" fill="#191616"/>
<path d="M21.0561 54.8496L19.9023 56.1061L20.5914 56.5039L20.5843 58.9991L21.5032 59.5298L21.5102 57.0343L22.1993 57.432L21.0561 54.8496Z" fill="#191616"/>
<path d="M18.1733 53.1855L17.0195 54.442L17.7086 54.8398L17.7015 57.3353L18.62 57.8654L18.6271 55.3701L19.3161 55.7678L18.1733 53.1855Z" fill="#191616"/>
<path d="M57.5631 43.6786C57.8628 43.5058 58.1464 43.5252 58.3029 43.7297L58.6259 44.1522L59.2834 43.3221C59.29 43.3138 59.2961 43.3084 59.3018 43.3051C59.3127 43.2989 59.3209 43.3007 59.3248 43.3024C59.3308 43.3049 59.3433 43.3138 59.3344 43.3438L58.545 45.9629C58.5396 45.9813 58.5266 45.9983 58.5127 46.0066L56.3843 47.0689C56.3605 47.0807 56.3536 47.064 56.3519 47.0561C56.3501 47.0486 56.348 47.0276 56.3682 47.0023L57.0934 46.0868L56.4968 45.3072L56.1732 44.8837C56.1676 44.8766 56.162 44.8694 56.156 44.8625C56.1542 44.8602 56.1521 44.8583 56.15 44.856C56.1461 44.8515 56.1421 44.8467 56.1382 44.8425C56.1357 44.8399 56.1331 44.8375 56.1306 44.8349C56.1268 44.831 56.123 44.8271 56.1191 44.8237C56.1165 44.821 56.1136 44.8184 56.1108 44.8159C56.1073 44.8124 56.1035 44.809 56.0999 44.8057C56.0968 44.8033 56.0935 44.8008 56.0905 44.7984C56.0868 44.7955 56.0831 44.792 56.0793 44.7894C56.076 44.7868 56.0726 44.7845 56.0693 44.7822C56.0658 44.7795 56.062 44.7764 56.0583 44.7739C56.0548 44.7717 56.0514 44.7693 56.0477 44.7671C56.0441 44.7648 56.0402 44.7621 56.0363 44.7598C56.0327 44.7576 56.0292 44.7555 56.0256 44.7537C56.0215 44.7514 56.0177 44.749 56.0139 44.7468C56.01 44.745 56.0061 44.743 56.0023 44.7413C55.9987 44.7391 55.9945 44.7371 55.9905 44.7353C55.9867 44.7336 55.9827 44.7319 55.9786 44.7302C55.9746 44.7282 55.9707 44.7266 55.9664 44.7248C55.9626 44.7232 55.9585 44.7219 55.9545 44.7204C55.9503 44.7187 55.9462 44.7173 55.9419 44.7158C55.9379 44.7143 55.9337 44.7132 55.9296 44.7117C55.9252 44.7105 55.921 44.709 55.9167 44.7078C55.9126 44.7066 55.9082 44.7057 55.9041 44.7045C55.8998 44.7034 55.8953 44.7022 55.8907 44.7011C55.8865 44.7001 55.8822 44.6994 55.8779 44.6987C55.8734 44.6976 55.8688 44.6967 55.8644 44.6959C55.86 44.6951 55.8556 44.6944 55.8512 44.6939C55.8466 44.6932 55.842 44.6924 55.8374 44.6919C55.8329 44.6916 55.8284 44.691 55.824 44.6905C55.8202 44.6901 55.8164 44.6896 55.8125 44.6894L57.5631 43.6786Z" fill="#191616"/>
<path d="M53.8777 51.9794L55.8777 50.8437C55.9421 50.807 55.9944 50.8374 55.9948 50.9111L56.0021 52.6921C56.0025 52.7283 55.99 52.7696 55.9677 52.8081C55.9455 52.8463 55.9164 52.8768 55.8853 52.895L54.3735 53.7533C54.0716 53.9248 53.7874 53.9017 53.6318 53.693C53.6006 53.6511 53.5751 53.6023 53.5555 53.548C53.5267 53.4686 53.5106 53.3771 53.5081 53.2766C53.5073 53.2385 53.5082 53.1994 53.5112 53.1593C53.519 53.0524 53.5403 52.9392 53.5748 52.8244C53.5848 52.7914 53.5956 52.7584 53.6077 52.7248L53.8777 51.9794Z" fill="#191616"/>
<path d="M54.0984 48.7791C54.1165 48.7682 54.1288 48.7695 54.1349 48.7797L55.1054 50.4061C55.116 50.4241 55.1041 50.4484 55.0985 50.4577C55.0947 50.4644 55.0863 50.4772 55.0745 50.4839C55.0692 50.4868 55.0634 50.4888 55.057 50.4884L54.3129 50.4544L53.4924 52.7207C53.4874 52.7344 53.4825 52.7482 53.4778 52.7622C53.4731 52.776 53.4686 52.7896 53.4645 52.803C53.4625 52.809 53.4609 52.8146 53.459 52.8207C53.4567 52.8283 53.4541 52.8361 53.4518 52.8439C53.4497 52.8517 53.4474 52.8595 53.4452 52.8674C53.4437 52.8731 53.442 52.8787 53.4403 52.8844C53.438 52.8932 53.4357 52.9019 53.4334 52.9108C53.4324 52.9154 53.4309 52.9203 53.4297 52.9249C53.4275 52.934 53.4254 52.943 53.4233 52.9519C53.418 52.9745 53.416 52.9833 53.4143 52.9923C53.4096 53.0142 53.408 53.0232 53.4063 53.032C53.4054 53.0365 53.4044 53.041 53.4036 53.0454C53.4021 53.054 53.4008 53.0626 53.3994 53.0709C53.3984 53.0757 53.3976 53.0806 53.397 53.0851C53.3956 53.0933 53.3945 53.1013 53.3933 53.1093C53.3925 53.1144 53.3917 53.1194 53.3911 53.1247C53.3901 53.1321 53.3893 53.1395 53.3883 53.1471C53.3876 53.1527 53.387 53.1582 53.3864 53.1638C53.3855 53.1705 53.3849 53.1774 53.3844 53.1841C53.3837 53.1903 53.3829 53.1964 53.3825 53.2028C53.382 53.2089 53.3816 53.2146 53.3811 53.2206C53.3806 53.2276 53.3801 53.2345 53.3796 53.2412C53.3794 53.2464 53.379 53.2516 53.3789 53.2567C53.3787 53.2643 53.3782 53.2719 53.3779 53.2792C53.3778 53.2836 53.3778 53.2879 53.3777 53.2921C53.3776 53.3006 53.3772 53.309 53.3773 53.317C53.3773 53.3344 53.3773 53.3414 53.3774 53.3486L52.4762 52.1386C52.3218 51.9312 52.3126 51.5629 52.4522 51.1775L52.7402 50.3815L52.0654 50.3506C52.0452 50.3495 52.0461 50.3273 52.0475 50.3178C52.049 50.3082 52.0546 50.2842 52.0774 50.2672L54.0984 48.7791Z" fill="#191616"/>
<path d="M55.3127 44.9746C55.4617 44.8886 55.6094 44.8477 55.7397 44.8567C55.8698 44.8655 55.9798 44.924 56.0575 45.0259L56.3604 45.4216L55.3277 47.9856C55.3058 48.04 55.2669 48.0856 55.2272 48.1087C55.2068 48.1204 55.1861 48.1261 55.1674 48.1242L53.8313 47.9839C53.804 47.9811 53.7848 47.9624 53.7771 47.9315C53.7693 47.9009 53.774 47.8616 53.7903 47.8212L54.5703 45.8847C54.7262 45.4974 55.0107 45.1489 55.3127 44.9746Z" fill="#191616"/>
<path d="M57.7546 48.7012C57.7597 48.6984 57.7639 48.697 57.7667 48.6964C57.7743 48.6949 57.7916 48.6942 57.7916 48.7214L57.7845 49.698L59.5472 48.6838C59.5597 48.6765 59.5705 48.6703 59.5811 48.6637C59.5849 48.6613 59.589 48.6588 59.593 48.6562C59.5996 48.6521 59.6062 48.6481 59.6126 48.6437C59.6194 48.6394 59.6256 48.6349 59.6322 48.6305C59.6362 48.6279 59.6402 48.6254 59.644 48.6228C59.6515 48.6176 59.659 48.6123 59.6664 48.6068C59.6833 48.5948 59.6911 48.589 59.6988 48.5833C59.7148 48.571 59.7226 48.5651 59.7304 48.559C59.7458 48.5466 59.7535 48.5404 59.7611 48.5341C59.7766 48.5212 59.7838 48.5149 59.7911 48.5087C59.8069 48.495 59.8141 48.4888 59.821 48.4823C59.837 48.4678 59.8435 48.4615 59.8503 48.4554C59.8539 48.4519 59.8573 48.4486 59.8607 48.4456C59.8669 48.4395 59.8731 48.4336 59.8791 48.4275C59.8829 48.4238 59.8869 48.4199 59.891 48.4161C59.8966 48.4104 59.9019 48.4048 59.9074 48.399C59.9118 48.3948 59.9165 48.3901 59.9209 48.3857C59.9259 48.3806 59.9306 48.3751 59.9355 48.3701C59.9405 48.365 59.9455 48.3596 59.9505 48.3544C59.9547 48.3496 59.959 48.345 59.9631 48.3403C59.9685 48.3344 59.9741 48.3284 59.9797 48.322C59.9831 48.3181 59.9868 48.3138 59.9903 48.3097C59.9964 48.3029 60.0024 48.2959 60.0084 48.2889C60.0224 48.2722 60.0277 48.2661 60.0329 48.2598L59.1263 50.5034C58.9714 50.8871 58.6892 51.2323 58.39 51.4052L57.7697 51.7622L57.7633 52.6476C57.763 52.6746 57.7461 52.6934 57.7386 52.7006C57.7361 52.7029 57.7318 52.7064 57.727 52.7094C57.7184 52.7144 57.7077 52.717 57.6989 52.7083L56.5028 51.4911C56.494 51.4821 56.4939 51.4631 56.5024 51.4438L57.7268 48.7346C57.7354 48.7158 57.7461 48.7062 57.7546 48.7012Z" fill="#191616"/>
<path d="M59.5124 45.4712C59.5241 45.4645 59.5361 45.4597 59.5477 45.4572C59.5779 45.4505 59.6025 45.4601 59.6172 45.4838L60.3155 46.6253C60.4554 46.8529 60.445 47.2351 60.2885 47.6224C60.2817 47.6388 60.2776 47.6488 60.2733 47.6588C60.2664 47.6748 60.262 47.6848 60.2577 47.6945C60.2501 47.7111 60.2458 47.7203 60.2415 47.7296C60.2397 47.7335 60.238 47.737 60.2359 47.7407C60.2322 47.7488 60.2285 47.7568 60.2245 47.7645C60.2216 47.7704 60.2187 47.776 60.216 47.7816C60.2128 47.7876 60.2099 47.7933 60.2068 47.7993C60.2024 47.8079 60.1979 47.8163 60.1934 47.8247C60.1263 47.9485 60.053 48.058 59.972 48.1574C59.9424 48.1934 59.912 48.2279 59.8808 48.2606C59.7924 48.3541 59.6984 48.434 59.6026 48.4962C59.5842 48.5082 59.5656 48.5198 59.5471 48.5304L58.9654 48.8651L58.0406 47.3543C58.0109 47.3059 58.0328 47.2118 58.0894 47.1444L59.4576 45.5189C59.4749 45.4983 59.4935 45.4822 59.5124 45.4712Z" fill="#191616"/>
<path d="M3.52176 50.5176C3.39571 50.4449 3.29339 50.5033 3.29297 50.6481C3.29258 50.7926 3.39423 50.9689 3.52029 51.0417L7.07002 53.0911C7.19606 53.1639 7.29838 53.1053 7.2988 52.9607C7.29922 52.816 7.19753 52.64 7.07149 52.5671L3.52176 50.5176Z" fill="#191616"/>
<path d="M3.52567 49.0958C3.39961 49.023 3.2973 49.0814 3.29688 49.2263C3.29649 49.3707 3.39814 49.5468 3.52419 49.6196L9.02801 52.7972C9.15376 52.8698 9.25608 52.8113 9.2565 52.6669C9.25692 52.522 9.15524 52.346 9.02951 52.2734L3.52567 49.0958Z" fill="#191616"/>
<path d="M10.1586 55.8308L2.375 51.337L2.38994 46.0605L10.1735 50.5543L10.1586 55.8308ZM3.5216 49.6188L9.02546 52.7964C9.15116 52.869 9.25349 52.8107 9.25391 52.6663C9.25433 52.5214 9.15264 52.3452 9.02693 52.2726L3.52307 49.095C3.39703 49.0223 3.29471 49.0806 3.29428 49.2255C3.2939 49.3699 3.39555 49.546 3.5216 49.6188ZM3.52564 48.1968L9.02945 51.3744C9.1552 51.447 9.25752 51.3887 9.25795 51.2439C9.25837 51.0994 9.15668 50.9232 9.03097 50.8508L3.52711 47.6731C3.40107 47.6003 3.29874 47.6587 3.29832 47.8031C3.2979 47.9479 3.39959 48.124 3.52564 48.1968ZM3.51756 51.041L7.06728 53.0905C7.19334 53.1632 7.29565 53.1045 7.29607 52.9601C7.29649 52.8152 7.19481 52.6393 7.06879 52.5663L3.51904 50.5168C3.39303 50.4441 3.29066 50.5026 3.29028 50.6473C3.28986 50.7919 3.39151 50.9683 3.51756 51.041Z" fill="white"/>
<path d="M3.52957 47.6741C3.40353 47.6011 3.3012 47.6594 3.30078 47.8038C3.30039 47.9488 3.40205 48.1249 3.5281 48.1976L9.03191 51.3753C9.15766 51.448 9.25999 51.3895 9.26041 51.2449C9.26083 51.1002 9.15914 50.9242 9.03343 50.8515L3.52957 47.6741Z" fill="#191616"/>
</g>
</svg>
