<svg width="46" height="51" viewBox="0 0 46 51" fill="none" xmlns="http://www.w3.org/2000/svg">
<mask id="mask0_2704_6364" style="mask-type:alpha" maskUnits="userSpaceOnUse" x="0" y="0" width="46" height="51">
<rect y="0.791016" width="45.5503" height="49.6737" fill="#D9D9D9"/>
</mask>
<g mask="url(#mask0_2704_6364)">
<path d="M44.6601 11.4724L24.2721 1.13705C23.3665 0.677985 22.2968 0.675554 21.3891 1.13052L0.954552 11.3735C0.358203 11.6724 0.0590555 12.247 0.0577487 12.8223L4.10625e-06 38.3304C-0.00127235 38.9057 0.295048 39.4818 0.890061 39.7831L21.2782 50.1184C21.7311 50.348 22.2249 50.4635 22.719 50.4646C23.213 50.4657 23.7073 50.3525 24.1612 50.1249L44.596 39.882C45.1923 39.5834 45.4913 39.0087 45.4925 38.4333L45.5503 12.9252C45.5516 12.35 45.2551 11.774 44.6601 11.4724Z" fill="#F5B977"/>
<path d="M45.5197 12.873V38.3811C45.5197 38.9565 45.2221 39.5319 44.6264 39.8318L24.2149 50.121C23.7615 50.3496 23.2675 50.4639 22.7734 50.4639V12.873H45.5197Z" fill="#DE9761"/>
<path d="M44.6266 14.3245L24.2151 24.6137C23.3083 25.0709 22.2389 25.0709 21.3321 24.6137L13.6827 20.7575L11.0916 19.4514L7.73724 17.7606L0.920614 14.3245C-0.270413 13.7242 -0.270413 12.0234 0.920614 11.4231L21.3321 1.13395C22.2389 0.676704 23.3083 0.676704 24.2151 1.13395L35.0722 6.60687L44.6266 11.4231C45.8176 12.0234 45.8176 13.7242 44.6266 14.3245Z" fill="#F6CF94"/>
<path d="M38.4144 8.29182L13.6838 20.7582L7.73828 17.7613L32.4693 5.29492L38.4144 8.29182Z" fill="#5B3731"/>
<path d="M13.6838 20.7567V32.9131L7.73828 29.9162V17.7598L13.6838 20.7567Z" fill="#442723"/>
<path d="M17.9121 46.032C17.9119 46.1306 17.9813 46.2501 18.0667 46.2996L19.2654 46.9918C19.3513 47.0411 19.421 47.0017 19.4213 46.9033C19.4213 46.8657 19.4112 46.8242 19.3933 46.7843C19.3752 46.7448 19.3497 46.7067 19.3192 46.6761L18.8469 46.2075L18.8501 45.0842C19.338 45.2683 19.7098 44.9934 19.7116 44.4055L19.7169 42.5415L18.9719 42.1112V42.998L18.6263 42.679L18.6529 43.7426L18.2274 42.3333H18.4402V41.8044L17.642 41.3438L17.6367 43.2075C17.6351 43.7957 18.0044 44.4984 18.4917 44.8776L18.4885 46.0006L18.0151 45.9231C17.9536 45.9133 17.9124 45.957 17.9121 46.032Z" fill="#191616"/>
<path d="M12.3711 42.4509C12.2707 42.3928 12.189 42.439 12.1886 42.5545L12.1875 42.9595C12.1871 43.0745 12.2683 43.2151 12.3687 43.273L15.9419 45.3361C16.042 45.3939 16.1237 45.3472 16.124 45.2322L16.1252 44.8272C16.1255 44.7117 16.0444 44.5716 15.9442 44.5137L12.3711 42.4509Z" fill="#191616"/>
<path d="M15.2084 40.3965L14.375 41.3041L14.8727 41.5916L14.8676 43.394L15.5314 43.7773L15.5365 41.9746L16.0342 42.262L15.2084 40.3965Z" fill="#191616"/>
<path d="M13.1264 39.1934L12.293 40.101L12.7907 40.3883L12.7856 42.191L13.4491 42.574L13.4542 40.7714L13.9519 41.0587L13.1264 39.1934Z" fill="#191616"/>
<path d="M41.5811 32.3258C41.7975 32.2009 42.0023 32.2149 42.1154 32.3626L42.3486 32.6678L42.8237 32.0682C42.8285 32.0621 42.8329 32.0583 42.8369 32.0559C42.845 32.0514 42.8508 32.0527 42.8536 32.0539C42.8579 32.0557 42.8669 32.0621 42.8605 32.0838L42.2903 33.9758C42.2864 33.9891 42.277 34.0014 42.267 34.0074L40.7295 34.7747C40.7122 34.7833 40.7073 34.7712 40.7061 34.7655C40.7048 34.7601 40.7032 34.745 40.7178 34.7266L41.2417 34.0654L40.8108 33.5022L40.5769 33.1962C40.573 33.1911 40.5688 33.1859 40.5646 33.1809C40.5632 33.1792 40.5618 33.1779 40.5603 33.1762C40.5574 33.1729 40.5544 33.1695 40.5518 33.1665C40.5499 33.1646 40.548 33.1628 40.5461 33.161C40.5435 33.1582 40.5408 33.1554 40.5378 33.1528C40.5359 33.151 40.5339 33.149 40.532 33.1472C40.5293 33.1447 40.5266 33.1423 40.5239 33.1399C40.5217 33.1381 40.5194 33.1363 40.5172 33.1346C40.5145 33.1325 40.512 33.13 40.5092 33.128C40.5068 33.1262 40.5044 33.1246 40.502 33.1229C40.4994 33.1209 40.4966 33.1187 40.494 33.1169C40.4915 33.1153 40.489 33.1136 40.4863 33.112C40.4836 33.1103 40.4808 33.1084 40.478 33.1068C40.4755 33.1052 40.4729 33.1036 40.4705 33.1024C40.4673 33.1007 40.4646 33.0988 40.4619 33.0973C40.4591 33.096 40.4563 33.0946 40.4536 33.0933C40.4509 33.0918 40.4479 33.0903 40.4449 33.0889C40.4423 33.0877 40.4393 33.0865 40.4364 33.0853C40.4336 33.0839 40.4307 33.0827 40.4276 33.0814C40.4248 33.0803 40.4219 33.0793 40.4189 33.0782C40.416 33.077 40.413 33.076 40.4099 33.0749C40.407 33.0738 40.4041 33.0731 40.401 33.072C40.3978 33.0711 40.3948 33.07 40.3917 33.0692C40.3887 33.0683 40.3855 33.0677 40.3826 33.0667C40.3794 33.066 40.3762 33.0651 40.3729 33.0643C40.3699 33.0636 40.3667 33.0631 40.3636 33.0626C40.3604 33.0617 40.3571 33.0611 40.3539 33.0605C40.3507 33.06 40.3475 33.0594 40.3444 33.0592C40.3411 33.0586 40.3378 33.0581 40.3345 33.0577C40.3311 33.0575 40.3279 33.057 40.3247 33.0566C40.322 33.0564 40.3192 33.056 40.3164 33.0559L41.5811 32.3258Z" fill="#191616"/>
<path d="M38.9196 38.3219L40.3643 37.5015C40.4109 37.475 40.4487 37.497 40.4489 37.5502L40.4542 38.8368C40.4544 38.8628 40.4455 38.8927 40.4294 38.9205C40.4133 38.9481 40.3923 38.9701 40.3698 38.9833L39.2777 39.6033C39.0597 39.7272 38.8543 39.7106 38.7419 39.5597C38.7194 39.5294 38.701 39.4943 38.6869 39.455C38.666 39.3977 38.6544 39.3316 38.6526 39.2589C38.6519 39.2315 38.6527 39.2033 38.6547 39.1742C38.6605 39.0969 38.6759 39.0153 38.7008 38.9324C38.708 38.9085 38.7158 38.8847 38.7246 38.8604L38.9196 38.3219Z" fill="#191616"/>
<path d="M39.0796 36.0114C39.0926 36.0035 39.1015 36.0045 39.1059 36.0118L39.807 37.1867C39.8147 37.1996 39.8061 37.2172 39.8021 37.2239C39.7993 37.2288 39.7932 37.2381 39.7846 37.2429C39.7808 37.2451 39.7767 37.2464 39.7721 37.2462L39.2345 37.2216L38.6418 38.8587C38.6383 38.8686 38.6347 38.8786 38.6313 38.8887C38.6279 38.8986 38.6246 38.9085 38.6217 38.9181C38.6202 38.9224 38.6191 38.9266 38.6176 38.931C38.6161 38.9365 38.6141 38.9421 38.6125 38.9477C38.6109 38.9533 38.6093 38.9589 38.6078 38.9647C38.6067 38.9688 38.6054 38.9728 38.6042 38.977C38.6025 38.9833 38.6008 38.9896 38.5992 38.996C38.5985 38.9993 38.5974 39.0029 38.5965 39.0063C38.5949 39.0128 38.5935 39.0193 38.5919 39.0257C38.5881 39.042 38.5866 39.0484 38.5854 39.0549C38.582 39.0707 38.5808 39.0772 38.5796 39.0836C38.5789 39.0868 38.5782 39.0901 38.5776 39.0933C38.5766 39.0994 38.5756 39.1058 38.5747 39.1118C38.5739 39.1152 38.5733 39.1187 38.5728 39.1219C38.5719 39.1279 38.5711 39.1337 38.5703 39.1393C38.5697 39.1431 38.5691 39.1467 38.5687 39.1504C38.568 39.1559 38.5673 39.1613 38.5666 39.1667C38.5661 39.1708 38.5656 39.1747 38.5653 39.1788C38.5645 39.1837 38.5642 39.1887 38.5638 39.1934C38.5633 39.1979 38.5627 39.2023 38.5623 39.207C38.5621 39.2114 38.5617 39.2155 38.5614 39.2198C38.5611 39.2248 38.5608 39.2299 38.5604 39.2347C38.5601 39.2385 38.5599 39.2422 38.5598 39.2459C38.5597 39.2514 38.5593 39.2569 38.5592 39.2621C38.559 39.2653 38.559 39.2684 38.5589 39.2715C38.5589 39.2775 38.5586 39.2836 38.5587 39.2895C38.5587 39.3021 38.5587 39.3071 38.5588 39.3123L37.9078 38.4382C37.7962 38.2884 37.7896 38.0223 37.8903 37.744L38.0985 37.1689L37.611 37.1467C37.5964 37.1458 37.5971 37.1298 37.5981 37.1229C37.5991 37.116 37.6031 37.0987 37.6197 37.0864L39.0796 36.0114Z" fill="#191616"/>
<path d="M39.9555 33.2638C40.0632 33.2017 40.1699 33.1721 40.264 33.1786C40.358 33.185 40.4375 33.2272 40.4936 33.3008L40.7124 33.5867L39.9664 35.4389C39.9507 35.4783 39.9226 35.511 39.8938 35.5277C39.8791 35.5362 39.8641 35.5403 39.8506 35.539L38.8855 35.4376C38.8657 35.4356 38.8519 35.4221 38.8464 35.3998C38.8408 35.3777 38.8441 35.3493 38.8559 35.3201L39.4194 33.9212C39.532 33.6415 39.7374 33.3897 39.9555 33.2638Z" fill="#191616"/>
<path d="M41.7217 35.9536C41.7253 35.9515 41.7282 35.9506 41.7303 35.9502C41.7358 35.9491 41.7483 35.9486 41.7483 35.9683L41.7431 36.6737L43.0166 35.941C43.0255 35.9358 43.0334 35.9313 43.041 35.9266C43.0438 35.9248 43.0467 35.923 43.0495 35.9211C43.0543 35.9181 43.0591 35.9153 43.0638 35.9121C43.0686 35.9091 43.0731 35.9058 43.0779 35.9026C43.0808 35.9008 43.0837 35.8988 43.0864 35.8971C43.0918 35.8932 43.0973 35.8894 43.1026 35.8854C43.1148 35.8768 43.1205 35.8726 43.1261 35.8685C43.1375 35.8596 43.1433 35.8553 43.1489 35.851C43.16 35.8419 43.1655 35.8375 43.171 35.8329C43.1822 35.8236 43.1875 35.819 43.1927 35.8146C43.2041 35.8047 43.2093 35.8002 43.2143 35.7955C43.2258 35.785 43.2306 35.7805 43.2354 35.7761C43.238 35.7736 43.2404 35.7711 43.243 35.7689C43.2474 35.7645 43.2519 35.7604 43.2563 35.756C43.259 35.7533 43.2619 35.7504 43.2649 35.7477C43.2689 35.7435 43.2728 35.7395 43.2767 35.7354C43.2799 35.7323 43.2833 35.7289 43.2865 35.7257C43.29 35.722 43.2936 35.7181 43.297 35.7145C43.3006 35.7108 43.3043 35.7069 43.3078 35.7031C43.3109 35.6996 43.3139 35.6963 43.317 35.693C43.3208 35.6886 43.3249 35.6843 43.329 35.6798C43.3314 35.6769 43.3341 35.6738 43.3366 35.6708C43.341 35.6659 43.3453 35.6609 43.3497 35.6559C43.3598 35.6437 43.3636 35.6393 43.3674 35.6348L42.7125 37.2555C42.6006 37.5326 42.3967 37.7821 42.1805 37.9069L41.7325 38.1649L41.7279 38.8043C41.7276 38.8239 41.7154 38.8375 41.7101 38.8427C41.7082 38.8444 41.705 38.8469 41.7016 38.849C41.6954 38.8527 41.6877 38.8546 41.6814 38.8483L40.8174 37.969C40.811 37.9625 40.8109 37.9489 40.817 37.9349L41.7015 35.9778C41.7077 35.9642 41.7154 35.9572 41.7217 35.9536Z" fill="#191616"/>
<path d="M42.9907 33.6211C42.9992 33.6163 43.0079 33.6128 43.0162 33.6109C43.038 33.606 43.0558 33.6131 43.0665 33.6302L43.5709 34.4546C43.6719 34.6192 43.6644 34.8953 43.5513 35.1751C43.5464 35.1868 43.5435 35.1941 43.5403 35.2013C43.5355 35.2129 43.5323 35.2201 43.5291 35.2271C43.5236 35.2391 43.5206 35.2458 43.5174 35.2525C43.5161 35.2553 43.5148 35.2579 43.5134 35.2605C43.5107 35.2664 43.508 35.2721 43.5052 35.2776C43.503 35.2819 43.5009 35.2859 43.499 35.2901C43.4966 35.2944 43.4946 35.2985 43.4924 35.3028C43.4892 35.309 43.4859 35.3151 43.4827 35.3211C43.4341 35.4106 43.3813 35.4897 43.3227 35.5614C43.3013 35.5874 43.2795 35.6124 43.2569 35.636C43.1931 35.7037 43.1251 35.7613 43.0558 35.8062C43.0425 35.815 43.0291 35.8233 43.0158 35.8309L42.5956 36.0728L41.9276 34.9812C41.9061 34.9463 41.9219 34.8785 41.9628 34.8298L42.9511 33.6556C42.9637 33.6407 42.9771 33.629 42.9907 33.6211Z" fill="#191616"/>
<path d="M2.54418 37.2667C2.45313 37.2142 2.37921 37.2564 2.37891 37.3609C2.37862 37.4654 2.45206 37.5926 2.54311 37.6452L5.10735 39.1257C5.1984 39.1783 5.27231 39.136 5.27261 39.0316C5.27291 38.927 5.19946 38.7999 5.10841 38.7472L2.54418 37.2667Z" fill="#191616"/>
<path d="M2.54418 36.2394C2.45313 36.1868 2.37921 36.2291 2.37891 36.3337C2.37863 36.438 2.45206 36.5652 2.54311 36.6179L6.51892 38.9133C6.60977 38.9658 6.68368 38.9235 6.68398 38.8191C6.68428 38.7145 6.61083 38.5873 6.52001 38.5348L2.54418 36.2394Z" fill="#191616"/>
<path d="M7.33749 41.1046L1.71484 37.8585L1.72563 34.0469L7.34829 37.2931L7.33749 41.1046ZM2.54311 36.6173L6.51895 38.9127C6.60976 38.9652 6.68368 38.923 6.68398 38.8187C6.68428 38.714 6.61082 38.5868 6.52002 38.5343L2.54418 36.2389C2.45312 36.1864 2.37922 36.2284 2.37891 36.3331C2.37863 36.4374 2.45206 36.5647 2.54311 36.6173ZM2.54604 35.59L6.52184 37.8854C6.61268 37.9379 6.68659 37.8958 6.6869 37.7911C6.6872 37.6868 6.61375 37.5594 6.52293 37.5072L2.5471 35.2118C2.45605 35.1592 2.38213 35.2013 2.38182 35.3057C2.38152 35.4103 2.45498 35.5375 2.54604 35.59ZM2.5402 37.6447L5.10442 39.1251C5.19548 39.1776 5.26939 39.1353 5.26969 39.0309C5.27 38.9263 5.19654 38.7992 5.10551 38.7465L2.54127 37.266C2.45024 37.2135 2.3763 37.2557 2.37602 37.3602C2.37572 37.4647 2.44914 37.5922 2.5402 37.6447Z" fill="white"/>
<path d="M2.54807 35.2122C2.45703 35.1594 2.38311 35.2017 2.38281 35.3059C2.38253 35.4108 2.45596 35.5379 2.54702 35.5905L6.52282 37.886C6.61366 37.9384 6.68758 37.8961 6.68788 37.7916C6.68819 37.6872 6.61473 37.5601 6.52392 37.5076L2.54807 35.2122Z" fill="#191616"/>
</g>
<mask id="mask1_2704_6364" style="mask-type:alpha" maskUnits="userSpaceOnUse" x="7" y="7" width="32" height="27">
<rect x="7.01172" y="7.64453" width="31.5258" height="26.2953" fill="#D9D9D9"/>
</mask>
<g mask="url(#mask1_2704_6364)">
<path d="M37.2734 33.9399H8.27588C7.29068 33.9399 6.68531 32.8616 7.19832 32.0205L21.6971 8.24947C22.189 7.44288 23.3602 7.44288 23.8522 8.24947L38.3509 32.0205C38.8639 32.8616 38.2586 33.9399 37.2734 33.9399Z" fill="#F20206"/>
<path d="M9.26562 32.1213L22.7737 9.97461L36.2817 32.1213H9.26562Z" fill="white"/>
<path d="M24.3761 29.0298C24.3761 29.9136 23.6597 30.63 22.7759 30.63C21.8922 30.63 21.1758 29.9136 21.1758 29.0298C21.1758 28.1461 21.8922 27.4297 22.7759 27.4297C23.6597 27.4297 24.3761 28.1461 24.3761 29.0298Z" fill="black"/>
<path d="M23.0011 26.4839C23.0011 26.4839 25.213 20.6084 25.213 17.6534C25.213 16.3077 24.1221 15.2168 22.7765 15.2168C21.4308 15.2168 20.3398 16.3077 20.3398 17.6534C20.3398 20.6084 22.5518 26.4839 22.5518 26.4839H23.0011Z" fill="black"/>
</g>
</svg>
