<svg width="52" height="52" viewBox="0 0 52 52" fill="none" xmlns="http://www.w3.org/2000/svg">
<path d="M51.8359 26.082C51.8359 27.6198 51.702 29.1262 51.4453 30.5902C49.3117 42.7553 38.6943 52 25.918 52C25.5255 52 25.1352 51.9914 24.747 51.9741C10.9763 51.3616 0 40.0037 0 26.082C0 11.7679 11.6039 0.164062 25.918 0.164062C40.2321 0.164062 51.8359 11.7679 51.8359 26.082Z" fill="#1176FF"/>
<path d="M51.4465 30.5903C49.3129 42.7554 38.6955 52.0001 25.9192 52.0001C25.5267 52.0001 25.1364 51.9915 24.7483 51.9742C18.9765 46.2013 14.2005 41.4216 14.1633 41.3787C13.4116 40.728 13.0031 39.7357 13.1163 38.7063C13.3678 36.4166 14.0935 34.1374 15.7522 33.105C18.809 31.2028 21.8432 30.3923 21.8432 30.3923C21.9504 30.0596 22.0704 28.9587 22.1333 27.8319C21.7461 27.4299 21.3625 27.0102 20.9581 26.6125C20.3046 25.9701 20.1429 25.0942 19.9411 23.9911C19.7967 23.9269 19.7143 23.8029 19.6399 23.6894L19.6378 23.686C19.4912 23.6224 19.4082 23.4971 19.3332 23.3827L19.3311 23.3793C19.1846 23.3157 19.1015 23.1904 19.0265 23.0763C18.9352 22.9362 18.8991 22.7687 18.8652 22.6051C18.7421 22.0167 18.6189 21.4286 18.4961 20.8406C18.4036 20.3987 18.3107 19.9461 18.3733 19.499C18.4036 19.2876 18.4786 19.0661 18.6523 18.9418C18.8257 18.8174 19.1157 18.8473 19.2027 19.0426C19.2027 19.0426 18.9213 16.274 18.9213 16.507C18.6862 16.246 18.5002 15.6776 18.5779 15.2383C18.6557 14.7992 18.7955 14.3719 18.8652 13.9316C18.9411 13.4477 18.9334 12.9488 19.0722 12.4792C19.2678 11.8174 19.7359 11.2749 20.2123 10.7754C20.5499 10.4219 20.8988 10.0781 21.2793 9.77171C22.0417 9.15892 22.9504 8.69798 23.9226 8.58903C24.2345 8.55418 24.5492 8.55571 24.863 8.5573C25.2148 8.55913 25.5671 8.56065 25.9192 8.56255C26.2712 8.56065 26.6236 8.55913 26.9753 8.5573C27.2891 8.55571 27.6039 8.55418 27.9158 8.58903C28.888 8.69798 29.7967 9.15892 30.5591 9.77171C30.8914 10.0392 31.1993 10.3351 31.4968 10.6415C31.5588 10.7014 42.5495 21.6921 51.4465 30.5903Z" fill="#1052E5"/>
<path d="M36.8251 41.9007C34.9071 42.6852 31.4712 43.6077 25.9192 43.6077C20.3672 43.6077 16.9313 42.6852 15.0133 41.9007C13.7382 41.3792 12.9659 40.0758 13.1163 38.7063C13.3678 36.4166 14.0936 34.1375 15.7524 33.1052C18.8091 31.2028 21.8434 30.3923 21.8434 30.3923C21.9503 30.0596 22.0704 28.9589 22.1334 27.8319C21.7462 27.4298 21.3626 27.0101 20.9579 26.6125C20.1876 25.8554 20.101 24.7734 19.8259 23.3776C19.3206 23.5212 19.1608 23.2807 19.0267 23.0762C18.9352 22.9363 18.8992 22.7687 18.8651 22.6051C18.7419 22.0169 18.619 21.4287 18.4961 20.8404C18.4037 20.3986 18.3108 19.946 18.3735 19.4989C18.4034 19.2875 18.4786 19.066 18.6522 18.9417C18.8258 18.8175 19.1158 18.8475 19.2027 19.0426C19.2027 19.0426 18.9212 16.2741 18.9212 16.5071C18.6862 16.2461 18.5001 15.6776 18.578 15.2382C18.6557 14.7991 18.7954 14.3718 18.865 13.9314C18.9412 13.4478 18.9332 12.9488 19.0721 12.4792C19.2679 11.8173 19.736 11.2748 20.2123 10.7755C20.5497 10.4218 20.8987 10.0781 21.2794 9.77168C22.0417 9.15901 22.9503 8.69789 23.9224 8.589C24.2344 8.55427 24.5491 8.55573 24.8629 8.55726C25.2148 8.55903 25.567 8.56074 25.9191 8.56251C26.2713 8.56074 26.6235 8.55903 26.9754 8.55726C27.2891 8.55573 27.6038 8.55427 27.9158 8.589C28.8879 8.69789 29.7966 9.15901 30.5589 9.77168C30.9396 10.0782 31.2885 10.4219 31.6259 10.7755C32.1023 11.2748 32.5703 11.8173 32.7661 12.4792C32.905 12.9488 32.897 13.4478 32.9732 13.9314C33.0429 14.3718 33.1826 14.7991 33.2602 15.2382C33.3381 15.6776 33.152 16.246 32.917 16.5071C32.917 16.2741 32.6355 19.0426 32.6355 19.0426C32.7224 18.8475 33.0125 18.8175 33.186 18.9417C33.3596 19.066 33.4348 19.2876 33.4648 19.4989C33.5275 19.946 33.4346 20.3986 33.3421 20.8404C33.2192 21.4287 33.0963 22.0169 32.9732 22.6051C32.939 22.7686 32.903 22.9362 32.8116 23.0762C32.6774 23.2807 32.5176 23.5212 32.0123 23.3776C31.7372 24.7734 31.6506 25.8554 30.8803 26.6125C30.4756 27.0101 30.092 27.4297 29.7048 27.8319C29.7678 28.9589 29.8879 30.0596 29.9948 30.3923C29.9948 30.3923 33.0291 31.2028 36.0858 33.1052C37.7446 34.1375 38.4705 36.4166 38.722 38.7063C38.8725 40.0758 38.1002 41.3792 36.8251 41.9007Z" fill="white"/>
</svg>
