<svg width="42" height="69" viewBox="0 0 42 69" fill="none" xmlns="http://www.w3.org/2000/svg">
<path d="M41.2537 1.34968L27.462 21.4474L38.2 18.9226C38.4446 18.8653 38.6993 18.9673 38.8364 19.1783C38.9737 19.3894 38.9637 19.6638 38.8111 19.8638L22.5567 41.2735L32.823 39.4352C33.087 39.3878 33.3504 39.5223 33.466 39.7642C33.5817 40.0061 33.5223 40.2954 33.3199 40.4717L1.07036 68.5858C0.957935 68.6839 0.81792 68.7324 0.678516 68.7329C0.536426 68.7329 0.394824 68.6823 0.281787 68.5814C0.057544 68.382 0.0167725 68.0464 0.186572 67.799L13.9783 47.7012L3.24077 50.226C2.99626 50.2839 2.74102 50.1814 2.60393 49.9703C2.4666 49.7593 2.4771 49.4849 2.6292 49.2849L18.8835 27.8751L8.61724 29.7134C8.35332 29.7608 8.09038 29.6263 7.97417 29.3844C7.85845 29.1426 7.91802 28.8532 8.12017 28.6769L40.3698 0.5628C40.5962 0.36555 40.9341 0.367168 41.1583 0.567241C41.3832 0.766719 41.4234 1.10231 41.2537 1.34968Z" fill="#F9C626"/>
</svg>
